<svg width="202" height="200" viewBox="0 0 202 200" fill="none" xmlns="http://www.w3.org/2000/svg">
<g clip-path="url(#clip0_2508_68471)">
<path d="M192.231 76.5108C188.147 61.5921 180.596 47.8493 170.194 36.4022C159.792 24.9552 146.832 16.1278 132.371 10.6395C128.684 8.30254 124.521 6.82153 120.187 6.30529C117.431 4.71354 114.325 3.82663 111.144 3.72324C110.841 3.72021 110.539 3.73561 110.239 3.76934L109.432 3.85003C106.564 2.69125 103.515 2.04552 100.424 1.94231C97.4341 1.86618 94.4698 2.50646 91.7782 3.80969C90.2317 4.05114 88.7111 4.43706 87.2366 4.96239C85.1502 5.18717 83.0523 5.47535 80.9774 5.83845C78.468 5.20745 76.0097 4.38864 73.6231 3.38895L65.4735 0L69.8653 7.63667L70.2572 8.29947C52.8277 13.4098 37.1649 23.2711 25.0227 36.7793C12.8805 50.2874 4.73825 66.9089 1.50784 84.7826C-1.72257 102.656 0.0863719 121.076 6.73209 137.98C13.3778 154.884 24.5979 169.604 39.1359 180.492C53.674 191.38 70.956 198.006 89.0466 199.628C107.137 201.25 125.322 197.804 141.565 189.676C157.808 181.548 171.468 169.059 181.015 153.607C190.562 138.155 195.619 120.35 195.62 102.187C195.62 96.412 195.117 90.6478 194.115 84.9601H201.291V76.5108H192.231Z" fill="white"/>
<path d="M164.837 35.1575C155.256 25.543 143.717 18.1047 131.005 13.3483C127.483 11.0462 123.457 9.6304 119.27 9.22166C115.426 6.97965 112.354 6.70877 111.144 6.70877C110.951 6.7089 110.759 6.71852 110.567 6.73758L109.011 6.89896C106.281 5.69828 103.347 5.02929 100.366 4.92784C97.6985 4.86613 95.0585 5.47659 92.6889 6.703C91.0621 6.90845 89.4634 7.29509 87.9225 7.85571C85.5671 8.09778 83.229 8.42822 80.9083 8.84703C78.0355 8.16448 75.2232 7.24889 72.4993 6.10936C73.2906 7.48828 74.1785 8.8095 75.1563 10.0631C58.8365 14.0854 43.8789 22.3726 31.815 34.0761C19.7511 45.7797 11.0142 60.4792 6.49898 76.6694C1.98376 92.8597 1.85242 109.959 6.11839 126.217C10.3844 142.475 18.8944 157.306 30.7771 169.194C39.5045 178.322 49.9677 185.615 61.5522 190.644C73.1368 195.672 85.6093 198.336 98.2375 198.478C110.866 198.621 123.395 196.239 135.09 191.472C146.785 186.705 157.41 179.65 166.34 170.721C175.271 161.792 182.328 151.168 187.097 139.474C191.865 127.78 194.25 115.251 194.109 102.623C193.969 89.9947 191.308 77.5217 186.281 65.9363C181.254 54.3509 173.963 43.8865 164.837 35.1575Z" fill="#231F20"/>
<path d="M156.531 39.9586C156.681 40.1027 156.837 40.241 156.987 40.3909C159.788 41.4885 162.337 43.1434 164.479 45.2553C166.327 46.0124 168.101 46.9405 169.776 48.0275C164.765 41.3906 158.868 35.472 152.249 30.4373C154.161 33.3701 155.606 36.5822 156.531 39.9586Z" fill="#A32035"/>
<path d="M49.7046 175.355C47.5979 173.409 45.7308 171.219 44.1428 168.831C32.0631 159.114 22.8501 146.298 17.4882 131.753C12.1263 117.207 10.8169 101.477 13.6999 86.2453C14.0284 72.0497 18.8871 60.8339 26.9099 53.9292C26.1145 54.5056 20.668 58.4075 18.0571 60.2979C7.1401 81.0511 4.75199 105.245 11.4009 127.732C18.0498 150.219 33.2109 169.224 53.6584 180.704C52.2397 178.998 50.9196 177.212 49.7046 175.355Z" fill="#A32035"/>
<path d="M187.095 90.0723C186.254 93.39 185.003 96.5902 183.372 99.5994C183.372 100.458 183.413 101.328 183.413 102.187C183.413 149.39 145.016 187.793 97.8127 187.793C84.9027 187.808 72.1586 184.885 60.5457 179.245C60.0558 180.865 59.6927 182.381 59.4333 183.695C71.4316 189.368 84.5408 192.303 97.8127 192.288C147.494 192.288 187.891 151.869 187.891 102.187C187.898 98.1356 187.632 94.0882 187.095 90.0723Z" fill="#A32035"/>
<path d="M63.1507 22.6968C65.1446 20.3324 67.4454 18.2448 69.992 16.4895C61.431 19.2761 53.3372 23.3328 45.9812 28.5237C51.3203 25.594 57.1313 23.6219 63.1507 22.6968Z" fill="#A32035"/>
<path d="M39.5838 160.802C31.8571 153.144 25.7243 144.031 21.5398 133.989C17.3553 123.947 15.2019 113.176 15.2041 102.297C15.0946 102.475 15.0428 102.475 15.0716 102.222C14.0661 96.9674 13.6064 91.6231 13.6999 86.2742C10.8224 101.502 12.1345 117.225 17.4962 131.766C22.858 146.306 32.0679 159.117 44.1428 168.831C42.4231 166.273 40.8991 163.59 39.5838 160.802Z" fill="#8C734B"/>
<path d="M180.398 104.446C180.018 118.269 176.176 131.775 169.222 143.727C162.268 155.68 152.426 165.696 140.597 172.857C128.769 180.019 115.332 184.098 101.518 184.719C87.7043 185.341 73.9554 182.486 61.5312 176.416C61.1566 177.378 60.8281 178.329 60.5457 179.245C72.1586 184.885 84.9027 187.808 97.8126 187.793C145.016 187.793 183.412 149.39 183.412 102.187C183.412 101.323 183.412 100.458 183.372 99.5994C182.473 101.27 181.48 102.888 180.398 104.446Z" fill="#8C734B"/>
<path d="M160.618 105.138C164.012 106.752 168.687 110.481 168.687 110.481C163.782 103.703 158.479 100.499 152.831 96.8791C149.621 95.7264 146.318 94.7466 142.999 93.8187C139.385 103.922 133.466 105.986 133.466 105.986C136.856 102.332 139.451 98.0143 141.085 93.3058C126.025 89.1964 110.798 85.9861 101.392 75.2198H101.478C100.083 73.3121 100.354 70.3439 103.346 69.8482C109.628 65.5947 127.178 67.831 128.313 67.9866C128.158 67.9866 127.65 67.8944 126.872 67.8137C132.157 61.0934 138.901 68.3728 145.241 66.2806C147.511 61.3355 134.18 49.2667 149.385 42.0738C148.217 41.8568 147.037 41.7124 145.852 41.6415C145.852 41.6415 148.474 40.9153 153.183 41.9701C149.569 27.031 136.67 21.6767 136.67 21.6767C133.088 16.449 127.62 12.8115 121.414 11.5271C124.682 13.5444 125.685 17.648 125.685 17.648C117.973 8.00563 110.763 8.76065 110.763 8.76065C117.218 11.8672 118.982 15.8901 118.982 15.8901C106.988 5.23914 98.7751 7.08346 98.7751 7.08346C104.475 7.65982 107.328 11.1179 107.328 11.1179C100.787 7.26213 91.7321 8.93356 91.7321 8.93356C101.876 10.2765 106.141 16.2302 106.141 16.2302C94.6542 9.94217 85.5133 13.6308 77.6345 10.0286C81.7439 14.6394 85.5133 15.308 85.5133 15.308C73.0352 15.0602 65.1277 26.2126 65.1277 26.2126C42.6499 28.8119 28.9904 47.9296 28.9904 47.9296C38.1544 41.1401 48.8861 40.2986 48.8861 40.2986C35.97 44.6616 31.5263 55.059 31.5263 55.059C18.6161 64.4478 18.1953 79.2658 18.1953 79.2658C18.1953 79.2658 21.9992 70.2171 33.5724 65.3757C33.5724 65.3757 25.4228 71.0413 20.3163 84.6317C20.3163 84.6317 24.5698 79.5482 29.4111 76.8336C29.4111 76.8336 32.8347 72.4591 37.2092 70.5744C37.2092 70.5744 25.394 79.0756 22.5583 95.6169C22.5583 95.6169 25.6303 87.9342 29.7685 84.159C29.7685 84.159 23.1519 95.6169 26.8118 113.553C26.8118 113.553 26.2354 103.986 34.1372 91.6977C27.6648 102.372 24.0049 131.408 32.9845 145.016C32.9845 145.016 29.0884 127.887 33.3361 115.247C33.3361 115.247 29.4399 139.817 45.0303 166.629C43.2565 161.628 42.8896 156.235 43.9698 151.039C43.9698 151.039 42.552 165.805 57.6697 182.104C58.7297 176.803 60.9499 171.801 64.1709 167.459C68.1764 171.073 71.5315 175.349 74.09 180.099C74.09 180.099 74.9199 164.151 81.1791 151.16C86.272 154.894 90.6708 159.492 94.1758 164.745C94.1758 164.745 94.7522 158.837 97.7204 150.094C97.7204 150.094 95.2363 142.538 88.2682 134.267C88.2682 134.267 95.2363 137.812 100.435 151.748C103.622 134.382 114.965 131.074 121.109 121.507C125.65 122.044 129.803 124.333 132.682 127.887C133.513 123.102 132.938 118.179 131.028 113.714C131.028 113.714 132.682 115.011 133.984 118.435C133.984 118.435 147.684 121.155 149.932 134.503C149.932 134.503 159.615 135.449 166.468 143.241C166.468 143.241 168.001 128.475 149.575 115C149.575 115 157.534 117.881 163.54 127.795C163.171 113.634 151.436 106.741 151.436 106.741C161.367 110.389 163.995 122.014 163.995 122.014C171.378 124.982 174.099 129.991 174.099 129.991C174.796 113.709 160.618 105.138 160.618 105.138ZM21.5785 71.5658C22.4205 69.0416 23.5827 66.6359 25.0366 64.4075C27.7743 62.8167 31.5782 60.69 31.5782 60.69C27.5034 63.4334 21.5785 71.5658 21.5785 71.5658ZM125.685 45.0536C124.398 45.8065 122.973 46.2926 121.495 46.4829C129.293 50.8401 134.492 48.3272 134.492 48.3272C129.881 51.209 123.443 50.2926 119.754 47.359C118.689 47.5754 117.602 47.6701 116.515 47.6414C116.989 48.8755 117.535 50.0803 118.152 51.2493C117.034 50.4194 116.002 48.8229 115.103 47.578C113.895 47.4623 112.696 47.2698 111.513 47.0016C114.193 49.2436 115.224 52.8977 118.014 54.4366C116.766 54.3349 115.569 53.8923 114.556 53.1571C113.403 55.8198 110.014 57.7679 105.991 57.7679C101.034 57.7679 97.0173 54.84 97.0173 51.232C97.0173 47.9065 100.424 45.5607 104.833 45.2092C103.576 44.8576 102.337 44.5233 101.121 44.2582C99.2938 44.408 95.513 45.3187 94.5851 50.1831C94.2526 48.9134 94.3818 47.5669 94.9497 46.3836C95.5176 45.2003 96.4873 44.2571 97.6858 43.7222C95.552 43.4629 93.3893 43.844 91.4727 44.8172C100.285 37.1575 107.743 47.5953 125.685 45.0766V45.0536ZM88.4699 61.03C90.122 61.902 91.9541 62.3777 93.8217 62.4197C95.6892 62.4618 97.5409 62.0689 99.2304 61.2721C93.6456 59.1396 94.1413 54.1253 94.1413 54.1253C97.4265 61.6179 109.582 61.9291 115.172 56.6728C111.311 63.249 104.078 62.3441 104.078 62.3441C94.3833 67.2719 88.4699 61.03 88.4699 61.03Z" fill="white"/>
<path d="M105.726 46.3733C103.838 46.343 101.97 46.7722 100.285 47.624C99.7435 48.4917 99.4339 49.484 99.386 50.5058C99.9339 50.2724 100.498 50.0797 101.075 49.9294C100.952 49.8127 100.855 49.6723 100.788 49.5167C100.722 49.3612 100.688 49.1937 100.689 49.0245C100.687 48.7917 100.751 48.563 100.872 48.3641C100.993 48.1652 101.167 48.0038 101.374 47.898C101.581 47.7922 101.814 47.7461 102.046 47.7649C102.278 47.7837 102.501 47.8666 102.688 48.0044C102.791 47.7817 102.956 47.5939 103.164 47.464C103.372 47.3341 103.613 47.2678 103.858 47.2733C104.103 47.2789 104.341 47.3559 104.543 47.495C104.745 47.6341 104.902 47.8292 104.994 48.0563C105.479 47.7527 106.036 47.5846 106.608 47.5692C107.18 47.5538 107.745 47.6918 108.246 47.9688C108.746 48.2458 109.164 48.6518 109.454 49.1445C109.745 49.6373 109.898 50.1988 109.899 50.7709C109.899 50.817 109.899 50.8631 109.899 50.9092C110.927 51.6497 111.822 52.5599 112.544 53.6008C113.02 52.7394 113.272 51.7722 113.276 50.7882C111.714 48.5346 109.853 46.3733 105.726 46.3733Z" fill="#690013"/>
<path d="M109.853 50.9207C109.834 51.7691 109.48 52.5754 108.867 53.1623C108.254 53.7492 107.433 54.0687 106.585 54.0503C105.736 54.032 104.93 53.6774 104.343 53.0645C103.756 52.4517 103.437 51.6308 103.455 50.7824C103.455 50.4543 103.504 50.1281 103.599 49.8141C103.406 49.7817 103.222 49.7048 103.063 49.5894C102.958 49.8043 102.793 49.985 102.589 50.1104C102.385 50.2359 102.15 50.301 101.91 50.2983C101.583 50.2991 101.268 50.1707 101.034 49.9409C100.458 50.0921 99.894 50.2847 99.3457 50.5173C99.3457 50.6095 99.3457 50.696 99.3457 50.7882C99.3457 54.3212 102.464 57.1914 106.308 57.1914C107.576 57.2111 108.825 56.8879 109.924 56.2558C111.022 55.6237 111.93 54.7063 112.55 53.6008C111.81 52.5603 110.898 51.6539 109.853 50.9207Z" fill="#A32035"/>
<path d="M103.801 47.3071C103.56 47.3027 103.324 47.3678 103.119 47.4946C102.915 47.6214 102.751 47.8044 102.648 48.0218C102.809 48.1377 102.94 48.2901 103.03 48.4665C103.12 48.6428 103.167 48.8381 103.167 49.0361C103.17 49.2355 103.127 49.4329 103.04 49.6125C103.202 49.723 103.388 49.7941 103.583 49.8201C103.778 49.8461 103.976 49.8263 104.161 49.7624C104.347 49.6984 104.515 49.592 104.653 49.4516C104.79 49.3112 104.893 49.1407 104.952 48.9537C105.012 48.7667 105.028 48.5682 104.997 48.3742C104.967 48.1802 104.892 47.9959 104.778 47.836C104.664 47.6761 104.514 47.5451 104.34 47.4532C104.167 47.3614 103.974 47.3114 103.778 47.3071H103.801Z" fill="#8C734B"/>
<path d="M103.167 49.0362C103.167 49.286 103.093 49.5303 102.954 49.738C102.815 49.9457 102.617 50.1075 102.386 50.2028C102.156 50.2982 101.901 50.3228 101.656 50.2737C101.411 50.2245 101.187 50.1037 101.01 49.9266C100.834 49.7495 100.714 49.5241 100.666 49.2788C100.618 49.0336 100.644 48.7797 100.74 48.5491C100.837 48.3186 100.999 48.1219 101.208 47.9839C101.416 47.8459 101.661 47.7728 101.911 47.7739C102.244 47.7755 102.564 47.9091 102.799 48.1457C103.035 48.3822 103.167 48.7024 103.167 49.0362Z" fill="white"/>
<path d="M111.236 52.0735C110.871 53.0884 110.201 53.9656 109.317 54.5847C108.434 55.2039 107.381 55.5346 106.302 55.5316C101.588 55.5316 100.372 50.7651 100.372 50.7651C100.372 53.7333 103.04 56.1483 106.314 56.1483C107.472 56.1718 108.611 55.8573 109.593 55.243C110.575 54.6288 111.356 53.7416 111.841 52.6901C111.657 52.5115 111.455 52.2867 111.236 52.0735Z" fill="#C66C6D"/>
<path d="M138.797 44.8401C137.81 46.4714 136.289 47.7114 134.492 48.3501C134.492 48.3501 129.305 50.863 121.495 46.5057C129.293 50.863 134.492 48.3501 134.492 48.3501C129.881 51.2318 123.443 50.3154 119.754 47.3818C118.689 47.5992 117.602 47.692 116.515 47.6584C116.989 48.887 117.535 50.086 118.152 51.2491C117.034 50.4192 116.002 48.8227 115.097 47.5778C113.892 47.4597 112.695 47.2672 111.513 47.0014C114.187 49.2434 115.224 52.8975 118.014 54.4363C117.505 54.371 117.002 54.265 116.51 54.1194C116.151 55.1949 115.561 56.1786 114.781 57.0011C114.902 56.8974 115.028 56.7936 115.149 56.6784C111.288 63.2545 104.055 62.3497 104.055 62.3497C102.531 63.1412 100.9 63.7043 99.2132 64.0211C98.366 65.1738 96.3776 67.0296 92.3489 67.1392C92.3489 67.1392 97.9798 69.8711 103.052 67.7155C103.052 67.7155 111.161 67.5657 114.423 61.2892C114.423 61.2892 121.558 60.0558 123.403 54.7706C123.403 54.7706 125.063 59.197 116.821 63.5024C116.821 63.5024 122.728 63.439 125.063 59.197C125.063 59.197 129.8 58.3383 129.673 53.8427C129.673 53.8427 132.319 57.6582 127.823 62.2113C127.823 62.2113 135.126 60.1134 133.76 53.3701C141.356 50.3615 138.797 44.8401 138.797 44.8401Z" fill="#B2B4B6"/>
<path d="M99.1844 136.595C108.844 126.584 102.96 114.636 102.96 114.636C96.6197 121.553 95.8416 131.241 95.8416 131.241C93.5362 122.717 93.9108 113.587 93.9108 113.587C92.2813 118.384 91.6919 123.473 92.1817 128.515C89.9801 119.645 83.9226 118.141 83.9226 118.141C90.4239 124.55 88.2914 134.244 88.2914 134.244C88.2914 134.244 95.2595 137.788 100.458 151.725C98.1297 141.783 99.1844 136.595 99.1844 136.595ZM100.862 120.458L101.738 118.728C101.738 118.728 104.199 125.316 100.245 133.224C100.233 133.183 102.17 125.645 100.862 120.458Z" fill="#B2B4B6"/>
<path d="M78.77 117.455C68.2401 143.829 71.5772 166.174 71.5772 166.174C72.1535 146.226 77.8248 141.085 77.8248 141.085C70.6377 155.298 74.0901 180.099 74.0901 180.099C74.0901 180.099 74.92 164.151 81.1792 151.16C80.3289 148.154 79.8356 145.059 79.7095 141.938C86.9888 127.818 78.77 117.455 78.77 117.455ZM77.7441 126.532C77.9977 125.587 78.8565 122.337 78.8565 122.337C82.1071 129.253 79.8824 137.062 79.8824 137.062C80.3954 128.417 77.7441 126.532 77.7441 126.532Z" fill="#B2B4B6"/>
<path d="M30.8232 115.997C29.7108 106.326 36.0449 101.184 36.0449 101.184C36.8979 87.9975 51.1972 88.084 51.1972 88.084C38.1832 93.3058 40.9209 102.216 40.9209 102.216C31.584 106.827 33.3303 115.247 33.3303 115.247C29.0768 127.887 32.9787 145.016 32.9787 145.016C27.5265 132.763 30.8232 115.997 30.8232 115.997Z" fill="#B2B4B6"/>
<path d="M63.7849 153.16C63.7849 153.16 58.5631 158.295 60.7879 167.286C60.7879 167.286 56.6785 162.404 59.249 153.5C59.249 153.5 54.2809 158.635 58.5631 170.623C58.5631 170.623 50.7478 162.324 56.8341 146.347C58.2128 147.623 59.7796 148.678 61.4795 149.477C71.3293 125.27 54.7131 115.656 54.7131 115.656C54.7131 115.656 63.9347 124.648 58.3096 142.543C58.3096 142.543 53.0013 139.287 52.9149 130.555C52.9149 130.555 54.2866 134.924 57.3701 137.835C55.3288 134.153 53.9111 130.158 53.1743 126.014C49.6643 134.319 51.9754 142.63 51.9754 142.63C45.2898 163.108 57.6698 182.127 57.6698 182.127C58.7298 176.826 60.95 171.824 64.1711 167.482C64.1711 167.482 61.0472 160.606 63.7849 153.16Z" fill="#B2B4B6"/>
<path d="M43.9698 151.039C42.8861 156.234 43.2529 161.628 45.0303 166.629C45.0303 166.629 33.5609 145.368 42.7248 118.481C42.7248 118.481 39.0535 136.019 43.9698 151.039Z" fill="#B2B4B6"/>
<path d="M122.826 101.801C131.765 99.0808 133.46 94.1011 133.46 94.1011C133.575 100.101 129.051 106.205 129.051 106.205C134.509 102.089 137.448 96.1933 138.814 92.6718C130.838 90.5335 122.901 88.5278 115.887 85.3982C114.809 87.231 111.397 90.7064 100.902 91.6055C100.902 91.6055 89.6975 102.7 89.5823 116.613C89.5823 116.613 90.8272 108.47 98.5215 101.455C98.5215 101.455 95.3573 109.599 97.3688 120.475C97.3688 120.475 97.0288 116.74 101.784 110.971C100.539 102.821 105.968 98.9713 105.968 98.9713C101.668 107.686 106.873 115.835 106.873 115.835C106.193 103.052 114.227 97.9684 114.227 97.9684C110.832 108.493 121.357 111.225 121.115 121.524C125.656 122.062 129.809 124.351 132.688 127.904C131.535 113.115 119.766 114.36 122.826 101.801Z" fill="#B2B4B6"/>
<path d="M31.1634 89.8015C31.1634 80.1822 42.6904 76.1132 42.6904 76.1132C38.6156 76.1132 33.5437 79.5367 33.5437 79.5367C37.9528 72.6205 46.892 73.4216 46.892 73.4216C54.5863 66.8627 67.4909 69.122 67.4909 69.122C58.7764 64.8224 47.4569 69.8021 47.4569 69.8021C58.5516 61.9926 77.1044 67.9924 77.1044 67.9924C72.6953 68.8973 68.0557 72.292 68.0557 72.292C55.0417 69.3526 49.1571 76.0267 49.1571 76.0267C34.218 78.6318 34.1719 91.7669 34.1719 91.7669C26.2586 104.055 26.8465 113.622 26.8465 113.622C24.8984 101.738 31.1634 89.8015 31.1634 89.8015Z" fill="#B2B4B6"/>
<path d="M122.221 35.826C123.525 37.2194 124.417 38.9472 124.797 40.8172C113.132 41.5088 108.394 35.4571 100.683 34.6848C103.392 36.0911 105.501 37.3937 107.207 38.4311C103.328 37.3706 96.3141 36.1257 93.2998 39.8201C102.083 36.2006 115.374 47.3761 128.659 42.1255C128.659 42.1082 126.648 37.7625 122.221 35.826Z" fill="#B2B4B6"/>
<path d="M130.186 46.1083C131.59 46.1826 132.991 45.9133 134.268 45.3237C135.544 44.7342 136.658 43.8422 137.512 42.7251C137.083 41.7758 136.446 40.9355 135.648 40.2669C134.85 39.5982 133.911 39.1185 132.901 38.8635C134.187 39.9492 135.08 41.4276 135.443 43.0709C134.48 42.2279 133.417 41.5059 132.278 40.9211C132.278 40.9211 133.65 42.6905 133.812 44.2985C133.812 44.2755 133.005 45.4858 130.186 46.1083Z" fill="#B2B4B6"/>
<path d="M94.9193 46.4137C95.4874 45.2079 96.466 44.2436 97.68 43.6933C95.5462 43.434 93.3835 43.8152 91.467 44.7884C93.2499 43.1298 95.55 42.1365 97.9798 41.9758C94.5216 42.166 88.5506 43.359 84.0954 48.7825C84.0954 48.7825 85.1386 42.8288 90.6889 40.3332C90.6889 40.3332 82.084 39.3707 76.2801 46.1313C78.0703 45.4222 79.9954 45.1191 81.9168 45.2437C81.9168 45.2437 77.4097 53.1282 64.3726 48.4655C65.7149 49.9544 67.5396 50.9219 69.5252 51.1974C69.5252 51.1974 63.0067 56.6727 52.7073 53.2089C52.7073 53.2089 60.1076 60.3729 72.7413 51.6008C75.3438 51.819 77.9613 51.4242 80.3837 50.4481C80.7858 51.2172 81.3339 51.9004 81.9975 52.4596C81.9975 52.4596 76.4415 52.2982 73.3868 55.837C73.3868 55.837 64.8568 55.5143 61.1566 60.5862C61.1566 60.5862 69.5252 56.2405 77.9688 58.2808C77.0616 57.6313 76.097 57.0661 75.087 56.5921C76.5183 55.549 78.1827 54.8714 79.9355 54.6183C81.6884 54.3651 83.4765 54.5441 85.1444 55.1397C85.1444 55.1397 86.591 58.2001 91.7436 58.9205C91.7436 58.9205 86.274 56.6151 86.3547 51.5202C88.1212 51.1404 89.7737 50.3507 91.1788 49.2148C90.8055 50.3167 90.7386 51.4993 90.9853 52.6362C91.232 53.7732 91.7829 54.8218 92.5793 55.6699C91.784 53.4106 91.0635 49.5029 94.9193 46.4137Z" fill="#B2B4B6"/>
<path d="M53.4565 39.1055C53.4565 39.1055 58.5515 36.6157 66.2458 37.1805C69.2503 34.397 72.9073 32.4149 76.8795 31.417C76.8795 31.417 62.6205 32.4314 53.4565 39.1055Z" fill="#B2B4B6"/>
<path d="M77.4443 27.3363C77.4443 27.3363 84.3606 24.1664 92.1586 25.6418C92.1586 25.6418 88.3086 22.6967 81.4039 23.492C81.4039 23.492 84.349 23.9416 85.2539 24.3969C85.2539 24.3969 82.084 24.3969 77.4443 27.3363Z" fill="#B2B4B6"/>
<path d="M43.4973 67.8482C43.4973 67.8482 48.0217 61.7389 57.1914 61.5084C57.8613 60.1346 58.9246 58.991 60.2461 58.2231C60.2461 58.2231 48.3617 59.1395 43.4973 67.8482Z" fill="#B2B4B6"/>
<path d="M76.1995 41.0306C76.1995 41.0306 83.1157 35.3709 90.7985 37.0711C92.3125 35.4015 94.3412 34.2858 96.562 33.9012C96.562 33.9012 91.6976 32.7484 89.323 35.1461C89.323 35.1461 89.7783 32.2067 94.8675 31.4113C94.8675 31.4113 89.104 29.8263 86.7179 34.5812C82.512 35.2963 78.7443 37.6065 76.1995 41.0306Z" fill="#B2B4B6"/>
<path d="M96.5676 28.0165C96.5676 28.0165 102.003 27.7918 105.057 31.9761C105.057 31.9761 111.057 31.1865 115.581 33.4515C114.307 32.2519 112.786 31.3463 111.124 30.7986C109.462 30.2509 107.7 30.0744 105.962 30.2816C104.675 29.2083 103.158 28.4457 101.529 28.0529C99.9 27.6601 98.2023 27.6476 96.5676 28.0165Z" fill="#B2B4B6"/>
<path d="M104.833 21.0022C104.833 21.0022 111.847 19.8495 116.36 24.9617C116.36 24.9617 125.189 24.6217 130.849 31.7512C130.849 31.7512 130.509 28.3564 125.869 25.7513C128.043 26.1854 130.045 27.2391 131.633 28.7854C133.221 30.3317 134.328 32.3045 134.82 34.4658C135.5 27.2268 127.691 22.3624 117.962 22.4719C117.962 22.4776 111.962 17.1522 104.833 21.0022Z" fill="#B2B4B6"/>
<path d="M138.901 31.0712C138.901 31.0712 142.745 34.3565 142.636 38.8808C142.636 38.8808 145.8 34.5812 143.31 30.7312C143.31 30.7312 143.765 33.4516 142.86 34.9213C142.855 34.9213 142.175 32.6562 138.901 31.0712Z" fill="#B2B4B6"/>
<path d="M35.9643 68.5859C34.0796 68.0096 31.4341 69.6233 31.4341 69.6233C32.8887 67.4696 34.7705 65.6379 36.9626 64.2419C39.1548 62.8459 41.6105 61.9155 44.1773 61.5083C38.7941 64.246 37.261 70.6262 37.261 70.6262C32.8923 72.5109 29.463 76.8854 29.463 76.8854C24.6216 79.6 20.3682 84.6834 20.3682 84.6834C23.9351 77.9472 29.3442 72.3642 35.9643 68.5859Z" fill="#B2B4B6"/>
<path d="M101.386 75.2082H101.473C101.04 74.6178 100.77 73.9242 100.689 73.1967C98.3 74.3882 95.6806 75.0456 93.0123 75.1232C90.344 75.2008 87.6907 74.6969 85.2367 73.6463C89.8699 73.5215 94.43 72.4609 98.6427 70.5282C91.2827 70.5282 82.6893 65.5255 77.894 63.4506C80.4115 63.8179 82.9765 63.6887 85.4442 63.0702C82.6143 63.3526 74.1189 60.3325 65.4333 63.1682C72.7875 62.2345 80.1937 67.3929 86.1474 69.9864C82.2455 70.1305 76.067 71.289 71.5714 76.5684C68.0786 75.3271 64.3196 75.0316 60.6757 75.7118C57.0318 76.392 53.6326 78.0237 50.8228 80.4415C50.8228 80.4415 59.6006 76.1938 69.3237 79.6864C69.3237 79.6864 62.3383 80.6317 57.4335 91.2135C63.0643 85.7998 70.4865 82.6414 78.2917 82.3377C69.8724 84.8044 62.6309 90.236 57.9061 97.6283C57.9061 97.6283 69.1392 83.8477 90.8504 82.0668C90.8504 82.0668 67.2488 89.9974 59.5084 102.815C59.5084 102.815 77.5367 86.5796 94.9079 84.7872C94.9079 84.7872 92.1703 94.9828 79.2369 94.5852C79.2369 94.5852 68.194 98.268 59.4162 110.354C59.4162 110.354 64.9837 112.804 67.341 121.581C67.341 121.581 65.5486 104.781 78.4819 97.0404C78.4819 97.0404 75.8076 103.657 81.8824 111.916C84.2166 100.746 89.9974 96.101 89.9974 96.101C96.9136 93.2653 98.3027 88.1704 98.3027 88.1704C105.219 87.5594 109.323 85.352 111.691 83.2829C107.812 81.2129 104.324 78.4802 101.386 75.2082Z" fill="#B2B4B6"/>
<path d="M166.468 143.247C159.615 135.449 149.932 134.503 149.932 134.503C147.684 121.155 133.985 118.44 133.985 118.44C132.682 115.011 131.028 113.714 131.028 113.714C131.028 113.714 145.569 116.06 154.624 131.898C154.624 131.898 154.399 126.711 148.739 120.584C156.886 126.085 163.09 134.015 166.468 143.247Z" fill="#B2B4B6"/>
<path d="M43.8372 85.0868C45.0361 80.7238 49.059 78.2397 49.059 78.2397C39.1918 81.3175 38.0391 88.9023 37.9412 90.0723C41.4973 86.0378 47.3472 86.3721 47.3472 86.3721C51.7967 82.8621 59.5025 82.522 59.5025 82.522C49.6584 81.4961 43.8372 85.0868 43.8372 85.0868Z" fill="#B2B4B6"/>
<path d="M54.7072 90.0549C41.6067 93.8243 43.4107 104.614 43.4107 104.614C30.9903 110.521 36.5579 130.382 36.5579 130.382C36.5579 130.382 33.0421 111.708 44.9784 107.403C44.9838 110.123 45.3186 112.833 45.9755 115.472C46.0619 104.164 52.6554 99.801 52.6554 99.801C51.1972 94.5966 54.7072 90.0549 54.7072 90.0549Z" fill="#B2B4B6"/>
<path d="M48.546 163.436C45.3761 149.904 48.546 141.944 48.546 141.944C44.8631 127.818 51.0301 121.391 51.0301 121.391C51.0301 121.391 49.6584 116.942 52.3096 114.031C52.3096 114.031 51.1973 106.925 56.079 102.47C56.079 102.47 46.8573 105.726 47.8602 120.025C47.8602 120.025 41.5203 129.184 45.8026 143.742C45.8026 143.742 44.2637 150.676 48.546 163.436Z" fill="#B2B4B6"/>
<path d="M77.0582 114.458C77.0582 114.458 61.7272 120.112 67.8942 137.172C66.6277 142.692 66.9029 148.454 68.6895 153.828C68.5858 146.036 69.3869 128.573 77.0582 114.458ZM67.6348 129.103C67.6348 129.103 67.8942 122.187 73.6289 119.086L72.9488 120.971C72.9488 120.971 69.6059 123.449 67.6348 129.103Z" fill="#B2B4B6"/>
<path d="M84.4183 133.552C86.2732 139.71 86.9133 146.17 86.303 152.572C84.1647 150.947 81.1792 151.171 81.1792 151.171C86.271 154.905 90.6681 159.502 94.1702 164.756C96.6485 149.442 84.4183 133.552 84.4183 133.552ZM87.5882 145.708L87.5018 143.056C90.6499 147.24 92.5231 152.243 92.8964 157.465C92.8964 157.465 90.5853 148.699 87.6055 145.708H87.5882Z" fill="#B2B4B6"/>
<path d="M111.478 111.138C109.634 113.772 109.173 118.429 109.173 118.429C111.72 128.175 105.484 133.097 105.484 133.097C104.37 135.726 103.835 138.565 103.916 141.419C106.17 137.224 109.046 134.192 111.945 131.402C114.163 124.801 113.998 117.63 111.478 111.138Z" fill="#B2B4B6"/>
<path d="M133.46 105.986C133.46 105.986 139.46 106.89 143.984 111.173C143.984 111.173 143.079 106.873 138.221 104.043C138.221 104.043 145.01 103.818 149.171 112.642C149.171 112.642 149.823 104.533 139.373 100.827C136.394 104.965 133.46 105.986 133.46 105.986Z" fill="#B2B4B6"/>
<path d="M161.073 110.4C161.073 110.4 155.091 99.2075 142.497 95.1384C142.103 96.1231 141.655 97.0852 141.154 98.0202C143.817 98.7637 153.886 102.014 161.073 110.4Z" fill="#B2B4B6"/>
<path d="M162.318 48.4424C158.75 44.4079 153.056 42.7481 149.385 42.1025C134.181 49.2897 147.512 61.3585 145.241 66.3093C138.901 68.3957 132.158 61.1222 126.867 67.8078C127.818 67.9116 128.371 67.9865 128.371 67.9865C128.371 67.9865 107.49 67.7329 104.008 71.2083C101.985 71.704 102.101 73.4792 103.179 74.5224C120.659 92.3086 143.702 87.6113 166.727 102.078C163.465 89.8418 154.284 79.7326 146.739 75.8422C144.924 75.4964 142.705 75.0929 140.278 74.6895C149.558 79.4732 156.681 86.0206 160.531 93.4036L162.088 96.3892L159.09 94.8503C151.022 90.7006 143.984 88.741 137.189 86.8448C128.44 84.4068 120.135 82.0841 111.253 75.3177L110.135 74.4474L109.979 74.3206C109.595 74.0171 109.211 73.7001 108.827 73.3696L107.397 72.1593L106.879 71.7213L109.42 71.485C112.141 71.2371 114.907 71.1046 117.651 71.1046C120.262 71.1046 122.89 71.2256 125.558 71.4562L126.354 71.5253L127.195 71.606C127.881 71.6752 128.55 71.7501 129.212 71.8308L129.668 71.8884L131.708 72.1708H131.887C140.03 73.3869 146.843 75.2658 153.212 75.2658C155.673 78.724 161.356 80.6144 163.903 80.9544C174.277 82.3377 175.868 89.5997 175.701 101.749C175.849 102.015 176.074 102.23 176.347 102.366C176.619 102.502 176.927 102.552 177.228 102.51C194.311 78.1476 177.764 54.131 162.318 48.4424Z" fill="#8C734B"/>
<path d="M138.613 75.3868C140.505 76.5853 142.297 77.9345 143.973 79.4213C140.924 77.4559 138.048 75.9113 136.278 75.0007C135.662 74.8969 135.051 74.8047 134.451 74.7125C142.831 78.9487 151.609 84.9888 154.237 89.542C141.391 82.9831 125.547 82.0494 115.178 73.7039C114.732 73.7269 114.306 73.7557 113.899 73.7903C117.743 77.0928 121.921 79.5538 131.541 82.5797C124.475 81.0927 118.4 78.8564 112.763 73.8883L111.322 74.0324C126.993 86.2856 140.538 84.1301 159.574 93.9108C155.54 86.2165 148.278 80.0149 139.719 75.6231L138.613 75.3868Z" fill="#A32035"/>
<path d="M128.279 72.7761C126.774 72.6032 125.241 72.4591 123.668 72.3554C129.737 74.9466 135.6 77.9966 141.206 81.479C134.549 78.1016 126.584 75.8884 119.806 72.1767C118.15 72.1345 116.465 72.1345 114.752 72.1767C120.728 77.4503 128.826 79.8768 137.362 82.4243C142.124 83.7443 146.804 85.3416 151.379 87.208C146.514 82.1534 136.399 76.0786 128.279 72.7761Z" fill="#A32035"/>
<path d="M146.779 78.5626C148.607 78.733 150.417 79.0549 152.191 79.5251C150.512 78.0982 148.682 76.8594 146.733 75.8307C144.918 75.4849 142.699 75.0814 140.272 74.678C142.52 75.8363 144.693 77.1337 146.779 78.5626Z" fill="#7F6C3D"/>
<path d="M174.41 60.0444C174.41 60.0444 183.632 72.9663 179.113 87.4096C174.986 74.0786 158.941 78.3494 155.344 70.9721C144.422 73.2775 136.947 67.7676 124.458 69.658C134.256 69.4102 146.964 74.1708 154.428 73.2717C160.837 84.1129 177.43 72.7761 177.597 97.8359C185.908 86.0033 182.462 68.7531 174.41 60.0444Z" fill="#7F6C3D"/>
<path d="M143.771 46.2752C146.515 46.4108 149.19 47.1865 151.581 48.5403C151.581 48.5403 150.837 49.7737 146.814 48.2925C148.785 53.8773 159.552 53.7159 158.151 47.6354C154.581 45.5738 150.638 44.2398 146.549 43.7104C145.492 44.4116 144.554 45.2775 143.771 46.2752Z" fill="#CABBA8"/>
<path d="M160.935 50.0217C160.935 50.0217 162.745 53.7968 158.139 55.6873C158.139 55.6873 160.197 59.7217 149.102 60.6151C149.102 60.6151 156.595 62.3441 160.854 57.2492C160.854 57.2492 164.958 60.8629 168.249 56.425C170.094 57.0508 171.84 57.9357 173.436 59.0532C173.436 59.0532 168.329 52.4021 160.935 50.0217Z" fill="#CABBA8"/>
<path d="M147.869 58.7302C148.693 56.6726 151.327 56.0156 152.388 54.6957C153.484 54.5109 154.607 54.568 155.678 54.8629C155.678 54.8629 155.921 58.1539 147.869 58.7302Z" fill="#231F20"/>
<path d="M152.474 55.5257C151.828 56.3211 150.612 56.8744 149.592 57.6409C149.737 57.6689 149.885 57.6689 150.03 57.6409C151.592 57.151 152.912 56.5747 153.932 55.3989C153.443 55.3935 152.955 55.4359 152.474 55.5257Z" fill="#7F6C3D"/>
<path d="M146.641 68.2574C148.534 65.9077 150.745 63.834 153.212 62.0962H151.73C151.73 62.0962 147.546 64.9722 146.641 68.2574Z" fill="#231F20"/>
<path d="M194.127 81.9631V79.917H194.916V79.5078H192.859V79.917H193.643V81.9631H194.127Z" fill="#231F20"/>
<path d="M197.153 79.5366L196.732 80.7412C196.68 80.9256 196.628 81.1274 196.565 81.3579C196.501 81.0985 196.455 80.9256 196.403 80.7354L195.96 79.5366H195.233L195.055 81.9919H195.522L195.614 80.5452C195.614 80.3205 195.614 80.0842 195.614 79.8594H195.643L195.81 80.5568L196.254 81.9515H196.755L197.199 80.5856C197.268 80.3666 197.343 80.0726 197.406 79.8594C197.406 80.1187 197.406 80.355 197.406 80.5452L197.498 81.9919H197.988L197.862 79.5366H197.153Z" fill="#231F20"/>
</g>
<defs>
<clipPath id="clip0_2508_68471">
<rect width="201.291" height="200" fill="white"/>
</clipPath>
</defs>
</svg>
