<svg width="129" height="90" fill="none" xmlns="http://www.w3.org/2000/svg"><g clip-path="url(#a)"><g clip-path="url(#b)"><path d="M128.964 66.743v-8.181l-3.144-4.314-.774-.303a176.204 176.204 0 0 0-7.087-2.583l-.913-.317c.293-1.177.554-2.953-.095-4.17a4.62 4.62 0 0 0-1.171-2.775 3.894 3.894 0 0 0-2.934-1.215h-.088a6.5 6.5 0 0 0-1.57.226 5.73 5.73 0 0 0-.697.247 3.87 3.87 0 0 0-1.974-.565 4.866 4.866 0 0 0 .037-3.166 4.7 4.7 0 0 0-1.72-2.502 4.648 4.648 0 0 0-2.884-.915 6.358 6.358 0 0 0-1.1.1 7.637 7.637 0 0 0-1.024.21c-1.133.317-2.674 1.025-3.558 2.62a4.916 4.916 0 0 0-.337.738 4.79 4.79 0 0 0-.723-1.498c-.623-.886-1.834-1.945-4.13-1.979h-.22l-.228.041s-.12.022-.326.078a5.005 5.005 0 0 0-3.11 2.443c-.764-1.757-1.681-2.953-2.36-3.525-.04-.085-.08-.17-.124-.25a2.62 2.62 0 0 0 1.096.066l.822-.14.51-.69c3.261-4.665 2.935-8.927 2.076-11.68-1.122-3.591-4.02-6.876-7.248-8.278a7.781 7.781 0 0 0-2.252-1.494 11.555 11.555 0 0 0-2.129-3.984 11.476 11.476 0 0 0-3.488-2.855 9.606 9.606 0 0 0-6.379-3.69 6.47 6.47 0 0 0-2.956-.823h-.33l-.15.019a8.67 8.67 0 0 0-2.873-.598 6.317 6.317 0 0 0-2.883.62 9.497 9.497 0 0 0-2.476.786 14.844 14.844 0 0 1-2.935-.904L51.418 0l1.999 3.491c.26.46.552.904.873 1.325a11.383 11.383 0 0 0-3.045 2.454 18.517 18.517 0 0 0-8.899 4.347c-2.16 1.867-3.976 4.251-4.622 6.097l-1.467 4.203.403-.295c-1.1 2.557-1.515 5.683-1.203 9.189-.068.638-.098 1.28-.088 1.922l.037 2.99 1.284-2.215c-.014.967.05 1.933.19 2.89h-.198c-2.285.033-3.507 1.107-4.13 1.978a4.79 4.79 0 0 0-.7 1.506 4.915 4.915 0 0 0-.338-.739c-.884-1.594-2.425-2.302-3.562-2.62a7.602 7.602 0 0 0-1.016-.21 6.446 6.446 0 0 0-1.1-.1 4.629 4.629 0 0 0-2.87.903 4.676 4.676 0 0 0-1.72 2.481 4.925 4.925 0 0 0 .03 3.2 3.877 3.877 0 0 0-1.977.565 5.765 5.765 0 0 0-.697-.248 6.507 6.507 0 0 0-1.56-.225h-.102a3.884 3.884 0 0 0-2.935 1.214 4.642 4.642 0 0 0-1.166 2.764c-.65 1.233-.393 2.997-.096 4.174l-2.63.9a171.537 171.537 0 0 0-8.349 3.185L0 55.864v9.437l.792-.333v1.812L0 67.15v9.554l4.035-1.845a147.82 147.82 0 0 1 6.603-2.82l4.585 2.68L6.85 79.6h21.03v.037h.796v.907h-.797V90h70.064l3.98-4.015V79.6h20.964l-8.36-4.883 1.287-.738h5.114v-1.214l.484.2a141.11 141.11 0 0 1 4.343 1.896l4.017 1.845v-9.594l-.807-.37Z" fill="#fff"/><path d="M128.142 67.282v-8.45l-2.854-3.913-.55-.213c-2.502-.979-5.062-1.901-7.615-2.754l-1.101-.369c.217-.682.939-3.17.11-4.461a3.916 3.916 0 0 0-.95-2.469 3.108 3.108 0 0 0-2.41-.956 5.407 5.407 0 0 0-1.357.196c-.343.093-.674.23-.983.406a3.1 3.1 0 0 0-2.836-.565 4.506 4.506 0 0 0-1.379.675l.037-.092c1.155-.738 2.182-2.25 1.507-4.502-.366-1.402-1.9-3.23-4.787-2.701a6.4 6.4 0 0 0-.924.188 4.884 4.884 0 0 0-3.06 2.214 4.216 4.216 0 0 0-.505 2.244c-.394.22-.734.523-.998.89a3.173 3.173 0 0 0-.224-.182c.136-1.055.103-2.49-.7-3.631-.514-.738-1.53-1.602-3.47-1.627h-.14l-.162.03a2.42 2.42 0 0 0-.242.058c-1.882.524-3.455 2.214-2.934 4.908-.026.096-.077.24-.129.421-.704-3.69-2.402-6.06-3.301-6.68a6.764 6.764 0 0 0-.532-.978l-.143-1.066a13.03 13.03 0 0 0-1.629-4.373 10.875 10.875 0 0 0-2.025-2.59c.734.42 2.686.767 3.441 2.007.036.06.068.123.096.188v.026c.344.738.58 1.904.414 3.974v.16l.158.29a1.637 1.637 0 0 0 1.467.86c.084.008.169.008.253 0l.488-.08.282-.407c3.07-4.387 2.763-8.377 1.967-10.953-1.071-3.446-3.852-6.58-6.922-7.834a7.044 7.044 0 0 0-2.469-1.59A10.814 10.814 0 0 0 79.013 9.6a10.74 10.74 0 0 0-3.448-2.817 8.821 8.821 0 0 0-2.678-2.401 8.767 8.767 0 0 0-3.407-1.127 5.697 5.697 0 0 0-2.718-.805h-.243l-.366.037a7.902 7.902 0 0 0-2.785-.612 5.475 5.475 0 0 0-2.59.579 8.768 8.768 0 0 0-2.604.867 15.109 15.109 0 0 1-3.37-1.004l-1.468-.609.792 1.38c.409.732.901 1.412 1.468 2.027a10.324 10.324 0 0 0-3.944 2.952c-3.918.587-6.936 2.602-8.804 4.203-2.024 1.753-3.745 4.008-4.332 5.717l-.587 1.66 1.413-1.04c.33-.244.649-.476.96-.694-3.41 2.952-4.493 7.75-4.034 12.916-.07.632-.102 1.268-.096 1.904.664-1.14 1.508-2.365 1.68-2.616a17.666 17.666 0 0 0 .077 7.465 5.138 5.138 0 0 0-.69-.25 2.42 2.42 0 0 0-.241-.06l-.162-.03h-.154c-1.94.027-2.957.901-3.47 1.628-.803 1.14-.836 2.584-.704 3.632-.081.062-.154.121-.22.18a3.074 3.074 0 0 0-.998-.889 4.216 4.216 0 0 0-.477-2.255 4.884 4.884 0 0 0-3.06-2.214 6.375 6.375 0 0 0-.924-.188c-2.887-.528-4.43 1.299-4.768 2.701-.675 2.251.366 3.775 1.507 4.502l.037.093a4.501 4.501 0 0 0-1.38-.676 3.086 3.086 0 0 0-2.835.565 4.208 4.208 0 0 0-.983-.406 5.413 5.413 0 0 0-1.357-.196 3.095 3.095 0 0 0-2.443.934 3.921 3.921 0 0 0-.961 2.458c-.83 1.291-.107 3.786.113 4.461l-.517.166-1.39.462v.572l-.587-.347-.88.31c-2.785.978-5.58 2.044-8.309 3.17l-1.25.517v7.635l.792-.332v3.587l-.793.369v7.75l2.843-1.33a148.735 148.735 0 0 1 7.017-2.98l6.156 3.597-6.937 4.052h18.8v.037h.796v2.583h-.796v7.794h68.87l3.511-3.531V78.77h18.708l-6.94-4.06 6.181-3.608c.411.162.829.32 1.24.49l.792.322.631.261c1.445.606 2.913 1.248 4.365 1.908l2.854 1.303v-7.75l-.774-.354Z" fill="#231F20"/><path d="M82.825 16.178c-1.122-1.28-2.912-1.8-4.064-2.011-4.769 2.273-.587 6.085-1.302 7.65-1.992.66-4.109-1.635-5.77.472l.469.056s-6.559-.081-7.652 1.018c-.635.159-.598.738-.26 1.048 5.502 5.62 12.728 4.137 19.962 8.71-1.027-3.868-3.91-7.064-6.28-8.293-.569-.107-1.27-.236-2.028-.369 2.934 1.51 5.135 3.58 6.36 5.905l.488.945-.946-.47c-2.539-1.313-4.747-1.93-6.882-2.53-2.997-.842-5.829-1.635-8.917-4.263l-.613-.52.8-.074a27.349 27.349 0 0 1 2.567-.122c1.77.009 3.537.17 5.28.484h-.023c2.201.369 4.123.848 5.906.848.77 1.107 2.568 1.69 3.356 1.797 3.261.44 3.76 2.739 3.709 6.573a.47.47 0 0 0 .477.24c5.414-7.705.209-15.297-4.637-17.094ZM77.9 22.452c.282-1.04 1.6-1.949 1.6-1.949h.469a10.11 10.11 0 0 0-2.07 1.938v.01Zm.367-3.015c.26-.65 1.1-.856 1.42-1.27.343-.06.697-.042 1.034.052 0 0 .095 1.026-2.436 1.207l-.019.01Z" fill="#8C734B"/><path d="M126.921 68.072v-2.794l-.514-.738.514-.31v-5l-2.407-3.303-.22-.085a157.121 157.121 0 0 0-8.224-2.952l-.165-.055-.334-.108-.561-.184-.903-.284a6.926 6.926 0 0 1-3.642 2.14 5.708 5.708 0 0 0 1.94-2.668 160.402 160.402 0 0 0-6.834-1.915l-.135-.037-.367-.092-.506-.13c-1.068-.265-2.146-.52-3.225-.767a6.7 6.7 0 0 1-3.562.738 16.231 16.231 0 0 0 1.567-1.196 173.39 173.39 0 0 0-5.741-1.096l-.125-.022-.337-.055-.389-.07c.106.38.275.741.499 1.066a3.813 3.813 0 0 1-2.37-1.365 143.41 143.41 0 0 0-5.135-.738h-.121l-.294-.037-.495-.063c-1.78-.218-3.58-.406-5.36-.564l-.876-.078v4.546l.19.026-.392 1.16-.385-1.197h.136V45.23l-.734-.056a163.691 163.691 0 0 0-5.931-.343l-.84-.033v4.606h.187l-.4 1.155-.367-1.148h.231v-4.624l-.785-.022c-1.834-.052-3.668-.07-5.48-.06h-.87c-3.246.034-6.514.163-9.72.37l-.734.051v1.742l-1.76-1.594-.35.033c-1.95.17-3.917.37-5.843.613l-.297.037-2.179 2.413-2.2-1.808-.368.055-.8.13a3.832 3.832 0 0 1-2.38 1.372c.226-.322.395-.682.499-1.063-1.776.307-3.551.643-5.3 1l-.445.096-.425.09-.103.017-.308.085c.497.43 1.019.829 1.563 1.196a6.7 6.7 0 0 1-3.562-.738c-.98.221-1.959.454-2.935.69l-.612.155v2.631l-2.715-1.926-.367.103c-1.467.402-2.963.83-4.442 1.28a5.702 5.702 0 0 0 1.94 2.673 6.927 6.927 0 0 1-3.645-2.144c-.683.214-1.365.435-2.04.656l-.558.185v1.8l-1.925-1.143-.367.125a162.63 162.63 0 0 0-8.246 3.145l-.5.206v4.982l.793-.332v6.192l-.792.37v5.063l1.14-.52a150.104 150.104 0 0 1 8.155-3.433l.227-.088 1.504-2.137v1.565l1.1-.395c1.714-.62 3.46-1.218 5.191-1.775l1.438-.454c1.468-.454 2.935-.89 4.402-1.292l.154-.044.576-.155c1.713-.465 3.46-.904 5.19-1.307l.367-.088.367-.081a146.711 146.711 0 0 1 8.155-1.613l.297-.052 2.127-2.56 2.135 1.915.367-.048a142.74 142.74 0 0 1 5.781-.66l.316-.034 1.665-1.864v1.716l.866-.063a158.65 158.65 0 0 1 9.677-.416h.8v-5.381l-1.794.04v-4.195l1.793-.04v-.739h.455l1.834 5.661h-.102v4.642h.796c2.23.034 4.493.115 6.72.244l1.247.081c2.238.148 4.501.35 6.724.602l.264.03.466.055c1.69.199 3.386.428 5.033.675l.928.144V57.69l1.434.225V61.7l.668.114c1.676.292 3.374.616 5.05.97l.514.108.231.048c1.732.369 3.478.782 5.191 1.214l1.005.254v-4.775l-.796-.195v-4.344l3.668.919v4.38l-.792-.217v4.797l.591.166c3.246.912 6.5 1.949 9.673 3.082l.334.118.366.136a152.91 152.91 0 0 1 5.195 1.993l.939.369.495.21c1.467.61 2.934 1.259 4.402 1.927l1.141.52V68.43l-.785-.358ZM8.693 65.489l-.143.195-.48.189v-.554l.623-.247v.417Zm0-5.455-.139.2-.484.188v-.639l.623-.24v.491Zm5.154 1.65-.421-.247.421-.602v.849Zm5.87.07-.624.2v-.525l.623-.188v.513Zm0-5.395-.103.136-.521.16v-.64l.623-.188v.532Zm5.953 3.69-.704.196V58.03l-.529-.37.529-.682v-2.583l.704-.189v5.842Zm5.965-1.424-.734.151v-5.798l.734-.166v5.813Zm5.869-1.248-.052.063-.572.11v-5.778l.624-.111v5.716ZM48.31 50.78l-1.001.096v4.613l1.001-.107v.48l-1.155.147v-5.701l1.148-.126.007.598Zm34.522 5.251-.367-.048 1.834-5.49.844.102-2.31 5.436Zm13.602 2.215-.796-.17-.173-.037-1.735-4.635 2.704.524v4.318Zm19.375 4.627-1.691-.568V57.89l1.691.547v4.435Zm5.87 3.012-.624-.259v-.542l.484.188.14.196v.417Zm0-5.458-.624-.244v-.657l.488.185.136.192v.524Z" fill="#A32035"/><path d="m94.864 58.747-2.982-7.972.788.13v-2.93a3.58 3.58 0 0 1-.484-.189c-2.169-.366-4.35-.691-6.544-.974v3.008l.668.092-2.975 6.982-.822-.1v3.027c1.697.199 3.385.426 5.062.682v-3.04l-.367-.06.25-.694 3.301.517.228.782-.367-.051V61c1.712.296 3.404.62 5.077.97v-3.066l-.833-.158Zm-6.53-4.285.767-1.797.76 2.048-1.526-.25Z" fill="#fff"/><path d="m102.017 44.096-.293-.694-.085-.546a2.36 2.36 0 0 1 .026-.303c.051-.553.345-2.114 2.018-1.845.293.025.575.127.818.295.186.053.369.118.546.196h.041c.33.187.604.462.792.793.323-.55.499-1.387-.228-2.461 0 0-.443-.797-1.995-.683 0 0-3.925.074-3.206 3.358 0 0 0 1.237.69 1.672 0 0-.866-.369-1.013-.738 0 0-1.563 0-1.42 1.602 0 0 .089 1.893-1.742.94l-.52-.21a1.453 1.453 0 0 0-.62-1.594 1.433 1.433 0 0 0-.566-.21s.793-2.62-.15-3.739c0 0-1.552-1.845-3.118-.262-.306.281-.522.647-.62 1.052a1.668 1.668 0 0 1 1.87-.24c1.446.694 1.442 2.277 1.237 3.023l-.125.45-.466.018a1.136 1.136 0 0 0-.935.428 1.752 1.752 0 0 0-.235.572.97.97 0 0 0 .15.491l.33.026s.856-1.151 1.963-.712c0 0-.968 0-1.357.675a.736.736 0 0 1 .396.613l.642.121c1.834.34 3.668.713 5.503 1.108.425-.543 1.364-1.875 1.672-3.196ZM110.799 46.41l-.22.184s-.407.185-.822-.369c-.414-.553-2.047-.992-2.986.218a3.486 3.486 0 0 1-2.843.59 13.65 13.65 0 0 1-1.06.853c.804.188 1.655.395 2.377.58a3 3 0 0 0 .041-.285c0-.037.025.14.062.31l.847.222c.818.21 1.633.431 2.451.657.284-.18.539-.403.755-.661a4.11 4.11 0 0 1-.132.686c.145.103.297.196.455.277l1.13.325h.037c.388.016.768-.116 1.063-.37a4.219 4.219 0 0 0-.524-.427l-.297-.21.025-.37c0-.147.129-1.476 1.02-2.055a1.884 1.884 0 0 1 1.889-.037c-.286-.768-1.086-1.675-3.268-.118Z" fill="#8C734B"/><path d="M93.862 43.317s.452-1.642-.916-2.277c0 0-1.123-.682-1.919 1.314 0 0-1.6 3.292 1.05 4.03-.005 0-.602-2.963 1.785-3.067ZM102.74 43.915c.018-.79-.367-.952-.628-.915.202-.627.866-2 2.678-1.203 0 0 1.269.668.532 2.45 0 0-.818 2.48-5.044 4.06 0-.011 2.432-2.871 2.462-4.392ZM111.796 48.668s.209-2.926 2.667-1.166c0 0 1.6 3.107-2.171 5.587 0 0 2.355-2.424-.496-4.42Z" fill="#fff"/><path d="m36.58 45.476.33-.026a.972.972 0 0 0 .15-.49 1.67 1.67 0 0 0-.239-.573 1.13 1.13 0 0 0-.935-.428l-.462-.018-.125-.45c-.205-.739-.209-2.33 1.236-3.023a1.664 1.664 0 0 1 1.871.24 2.1 2.1 0 0 0-.62-1.052c-1.566-1.572-3.118.262-3.118.262-.943 1.107-.15 3.739-.15 3.739a1.434 1.434 0 0 0-.995.634 1.453 1.453 0 0 0-.19 1.17l-.52.21c-1.835.953-1.743-.94-1.743-.94.143-1.602-1.42-1.602-1.42-1.602-.15.402-1.012.738-1.012.738.697-.436.69-1.672.69-1.672.733-3.284-3.21-3.358-3.21-3.358-1.548-.115-1.992.683-1.992.683-.734 1.073-.55 1.911-.228 2.461a2.1 2.1 0 0 1 .793-.793h.04c.177-.078.36-.144.547-.196.242-.169.524-.27.818-.295 1.669-.259 1.966 1.299 2.017 1.845.015.1.024.201.026.303l-.084.546-.294.694c.308 1.32 1.247 2.653 1.665 3.195 1.835-.406 3.669-.778 5.503-1.107l.642-.122a.74.74 0 0 1 .396-.612c-.389-.675-1.357-.675-1.357-.675 1.118-.44 1.97.712 1.97.712Z" fill="#8C734B"/><path d="M24.17 61.29v-2.835l-.873-.616.873-1.14v-3.95l-2.16-1.523c-1.468.395-2.902.815-4.337 1.25.4.748.953 1.402 1.622 1.92a6.954 6.954 0 0 1-2.983-1.502c-.821.258-1.64.516-2.454.786v3.151l.796-.273v7.717l-.796.269v3.196a151.77 151.77 0 0 1 5.217-1.786v-3.152l-.793.255V60.82l1.809-.55.429.298v4.93c1.467-.457 2.943-.89 4.428-1.298v-3.126l-.778.214Zm-3.628-4.662-.437.572-1.808.55v-2.332l1.808-.55.43.295.007 1.465Z" fill="#fff"/><path d="m19.728 53.938-.708.218c.095.08.19.166.286.24-.19-.045-.367-.104-.554-.16l-1.467.444v3.465l.47-.14v-3l2.439-.739-.466-.328ZM25.85 47.019a3.477 3.477 0 0 1-2.843-.59c-.939-1.211-2.568-.787-2.986-.218-.418.568-.822.369-.822.369l-.22-.185c-2.2-1.557-2.982-.639-3.268.118a1.883 1.883 0 0 1 1.89.037c.89.59 1.008 1.908 1.019 2.056l.025.368-.297.21a4.262 4.262 0 0 0-.524.429c.295.254.675.386 1.064.369h.036l1.13-.325c.158-.081.31-.174.455-.276a4.162 4.162 0 0 1-.132-.687c.217.258.471.48.756.66.818-.224 1.632-.446 2.45-.656l.847-.222c.037-.17.059-.31.059-.31s.022.155.044.285c.734-.185 1.574-.392 2.377-.58-.367-.266-.721-.55-1.06-.852Z" fill="#8C734B"/><path d="M35.916 43.317s-.451-1.642.913-2.277c0 0 1.126-.682 1.922 1.314 0 0 1.6 3.292-1.049 4.03 0 0 .602-2.963-1.786-3.067ZM27.038 43.915c0-.79.367-.952.628-.915-.202-.627-.866-2-2.678-1.203 0 0-1.27.668-.532 2.45 0 0 .818 2.48 5.044 4.06 0-.011-2.432-2.871-2.462-4.392ZM17.974 48.668s-.209-2.926-2.67-1.166c0 0-1.596 3.107 2.175 5.587.008 0-2.351-2.424.495-4.42ZM82.29 34.095a16.865 16.865 0 0 1 2.534 1.701c-1.54-2.14-3.206-3.155-4.974-4.295a42.566 42.566 0 0 0-3.1-.971c-1.137 3.188-2.993 3.845-2.993 3.845a11.433 11.433 0 0 0 2.395-4.011c-4.732-1.299-9.515-2.314-12.472-5.716h.03c-.44-.602-.367-1.54.583-1.698 1.735-1.177 6.137-.808 7.472-.653h-.077c1.662-2.107 3.778.188 5.77-.473.734-1.564-3.474-5.376 1.302-7.65a9.009 9.009 0 0 0-1.1-.136 5.183 5.183 0 0 1 2.304.103 9.719 9.719 0 0 0-1.88-3.79 9.646 9.646 0 0 0-3.307-2.624 7.7 7.7 0 0 0-4.795-3.206 3.502 3.502 0 0 1 1.347 1.937c-2.425-3.048-4.692-2.812-4.692-2.812 2.028.982 2.568 2.255 2.568 2.255-3.768-3.366-6.346-2.783-6.346-2.783 1.019.079 1.974.53 2.685 1.27C63.49 3.17 60.647 3.7 60.647 3.7c3.184.425 4.53 2.307 4.53 2.307-3.606-1.997-6.486-.842-8.954-1.97 1.291 1.475 2.476 1.67 2.476 1.67-3.925-.08-6.401 3.444-6.401 3.444-7.058.812-11.35 6.864-11.35 6.864a13.352 13.352 0 0 1 6.236-2.413A9.32 9.32 0 0 0 44 15.388a9.382 9.382 0 0 0-2.262 2.878 10.572 10.572 0 0 0-2.916 3.374 10.638 10.638 0 0 0-1.273 4.284s1.196-2.86 4.83-4.388c0 0-2.567 1.79-4.155 6.081a12.325 12.325 0 0 1 2.861-2.461 7.444 7.444 0 0 1 2.45-1.978 13.039 13.039 0 0 0-4.603 7.912s.968-2.425 2.267-3.62c0 0-2.08 3.62-.928 9.296 0 0-.187-3.023 2.3-6.909-2.036 3.355-3.184 12.496-.393 16.802-.114-.527-1.144-5.576.121-9.358 0 0-.565 3.587.613 8.547l.92-1.023.734-.092c1.94-.24 3.922-.446 5.87-.616l.872-.078.129.118v-.136l1.878-.13c2.124-.147 4.273-.25 6.423-.317l-.213-.265c.136.077.266.165.389.262.664-.019 1.332-.037 1.996-.048h3.998c1.343-1.517 2.88-2.584 3.932-4.226a5.494 5.494 0 0 1 3.64 2.015 8.004 8.004 0 0 0-.481-4.51c.426.407.745.915.928 1.477 0 0 4.302.856 5.01 5.078a8.664 8.664 0 0 1 2.935.978c.582.059 1.165.121 1.75.188l.367.048c-.334-1.731-1.468-4.628-5.18-7.359 0 0 2.502.912 4.402 4.06-.114-4.473-3.797-6.643-3.797-6.643 3.122 1.151 3.947 4.827 3.947 4.827 2.319.941 3.173 2.52 3.173 2.52.21-5.173-4.244-7.882-4.244-7.882Zm-43.678-10.61a9.82 9.82 0 0 1 1.082-2.262c.862-.506 2.058-1.174 2.058-1.174-1.28.864-3.14 3.436-3.14 3.436Zm32.706-8.355a3.56 3.56 0 0 1-1.321.45c2.45 1.362 4.101.569 4.101.569a4.239 4.239 0 0 1-4.63-.307 4.452 4.452 0 0 1-1.019.085c.15.389.32.768.514 1.137A5.527 5.527 0 0 1 68 15.898a8.894 8.894 0 0 1-1.137-.188c.851.708 1.174 1.87 2.058 2.358a2.13 2.13 0 0 1-1.1-.406c-.367.841-1.427 1.454-2.693 1.454-1.555 0-2.817-.927-2.817-2.067 0-1.055 1.075-1.793 2.465-1.904-.396-.11-.785-.218-1.166-.299a2.154 2.154 0 0 0-1.37.558 2.177 2.177 0 0 0-.692 1.313c-.105-.4-.064-.826.114-1.2.178-.373.482-.671.858-.84a3.39 3.39 0 0 0-1.951.346c2.762-2.413 5.11.886 10.748.107Zm-11.695 5.023a3.759 3.759 0 0 0 3.382.077 2.268 2.268 0 0 1-1.18-.856 2.29 2.29 0 0 1-.419-1.402c1.03 2.365 4.853 2.469 6.603.804a3.706 3.706 0 0 1-1.487 1.399 3.678 3.678 0 0 1-1.998.395c-3.041 1.572-4.9-.417-4.9-.417Z" fill="#fff"/><path d="m71.798 22.3.187.023-.187-.022Z" fill="#fff"/><path d="M41.513 37.527a5.415 5.415 0 0 1 .253-2.544 5.387 5.387 0 0 1 1.39-2.14c.269-4.166 4.77-4.136 4.77-4.136-4.09 1.65-3.229 4.465-3.229 4.465-2.934 1.477-2.384 4.119-2.384 4.119-1.335 3.993-.11 9.407-.11 9.407-1.724-3.89-.69-9.171-.69-9.171Z" fill="#B2B4B6"/><path d="M41.624 29.25c0-3.041 3.624-4.33 3.624-4.33-1.28 0-2.88 1.075-2.88 1.075 1.387-2.181 4.197-1.93 4.197-1.93 2.417-2.078 6.467-1.362 6.467-1.362-2.737-1.358-6.291.214-6.291.214 3.485-2.465 9.313-.572 9.313-.572a8.78 8.78 0 0 0-2.843 1.362c-4.086-.93-5.935 1.177-5.935 1.177-4.695.823-4.724 4.974-4.724 4.974-2.487 3.886-2.3 6.909-2.3 6.909-.598-3.746 1.372-7.518 1.372-7.518ZM70.228 12.178c.41.441.689.988.807 1.58-3.668.217-5.135-1.694-7.575-1.942.851.447 1.515.86 2.051 1.185-1.218-.332-3.422-.738-4.369.44 2.759-1.145 6.933 2.387 11.107.737a4.414 4.414 0 0 0-2.02-2ZM72.73 15.448a2.697 2.697 0 0 0 2.3-1.07 2.17 2.17 0 0 0-1.442-1.222c.398.344.674.81.785 1.325-.299-.27-.63-.5-.986-.686.239.313.403.678.48 1.066 0 0-.253.38-1.137.587ZM61.652 15.536c.177-.381.484-.686.866-.86a3.39 3.39 0 0 0-1.952.348 3.31 3.31 0 0 1 2.043-.89 5.949 5.949 0 0 0-2.407.61 5.984 5.984 0 0 0-1.954 1.542 3.886 3.886 0 0 1 .73-1.576c.36-.463.818-.838 1.342-1.096 0 0-2.707-.303-4.526 1.845a4.048 4.048 0 0 1 1.768-.28s-1.416 2.49-5.502 1.014c.422.47.994.777 1.617.867 0 0-2.047 1.728-5.282.635 0 0 2.326 2.262 6.295-.509a5.268 5.268 0 0 0 2.402-.369c.124.243.293.46.5.638 0 0-1.743-.051-2.704 1.067 0 0-2.678-.1-3.84 1.502 0 0 2.626-1.373 5.281-.738a5.86 5.86 0 0 0-.91-.535 3.403 3.403 0 0 1 3.159-.458s.455.967 2.073 1.196c0 0-1.717-.738-1.695-2.34a3.583 3.583 0 0 0 1.518-.738 2.039 2.039 0 0 0 .44 2.04c-.249-.704-.473-1.937.738-2.915ZM48.626 13.226a8.435 8.435 0 0 1 4.017-.609 7.62 7.62 0 0 1 3.341-1.823s-4.479.322-7.358 2.432ZM56.16 9.506a8.452 8.452 0 0 1 4.623-.535s-1.207-.93-3.379-.679c.411.059.816.154 1.21.284 0 0-.993 0-2.453.93Z" fill="#B2B4B6"/><path d="M45.486 22.312a5.669 5.669 0 0 1 4.314-2.015c.208-.434.542-.796.957-1.037 0 0-3.73.299-5.271 3.052ZM55.757 13.835s2.168-1.79 4.586-1.251a3.18 3.18 0 0 1 1.812-1.004s-1.53-.369-2.275.395c0 0 .143-.93 1.743-1.18 0 0-1.816-.5-2.568 1.003a5.194 5.194 0 0 0-3.298 2.037ZM62.169 9.72s1.706-.07 2.667 1.255c0 0 1.885-.251 3.301.465a3.755 3.755 0 0 0-3.022-1.004 3.422 3.422 0 0 0-2.946-.716ZM64.766 7.506s2.201-.369 3.624 1.251c0 0 2.773-.107 4.549 2.144 0 0-.106-1.07-1.563-1.893.683.137 1.311.47 1.81.959a3.633 3.633 0 0 1 1 1.794c.213-2.288-2.241-3.827-5.297-3.79 0 0-1.885-1.697-4.123-.465ZM75.466 10.702s1.207 1.037 1.17 2.469c0 0 .998-1.358.213-2.584 0 0 .143.86-.14 1.325a2.277 2.277 0 0 0-1.243-1.21ZM43.131 22.533c-.594-.177-1.423.329-1.423.329a5.975 5.975 0 0 1 1.733-1.711 5.937 5.937 0 0 1 2.269-.873c-1.691.864-2.18 2.883-2.18 2.883a7.445 7.445 0 0 0-2.446 1.996 12.42 12.42 0 0 0-2.857 2.461 12.642 12.642 0 0 1 4.904-5.085ZM45.603 27.759a4.138 4.138 0 0 1 1.64-2.167c-3.1.975-3.455 3.373-3.492 3.742 1.1-1.27 2.957-1.17 2.957-1.17 1.397-1.107 3.818-1.217 3.818-1.217-3.096-.325-4.923.812-4.923.812ZM49.019 29.327c-4.116 1.192-3.533 4.602-3.533 4.602-3.917 1.867-2.168 8.14-2.168 8.14s-1.1-5.904 2.645-7.262c0 .861.105 1.719.312 2.554.03-3.572 2.098-4.952 2.098-4.952-.459-1.646.646-3.082.646-3.082Z" fill="#B2B4B6"/><path d="M86.622 19.843s2.89 4.085 1.467 8.65c-1.295-4.214-6.342-2.864-7.465-5.196-3.433.738-5.781-1.015-9.706-.417 3.07-.078 7.072 1.428 9.42 1.144 2.014 3.428 7.226-.155 7.278 7.75 2.623-3.728 1.522-9.178-.994-11.931Z" fill="#786639"/><path d="M76.996 15.5c.861.043 1.7.288 2.45.715 0 0-.23.37-1.496-.077.62 1.764 3.998 1.712 3.562-.207a9.77 9.77 0 0 0-3.647-1.243c-.33.223-.623.497-.869.811ZM82.388 16.677s.569 1.192-.876 1.79c0 0 .645 1.273-2.84 1.557 0 0 2.348.546 3.69-1.063 0 0 1.292 1.14 2.323-.262.578.199 1.125.48 1.625.834 0 0-1.6-2.103-3.922-2.856Z" fill="#CABBA8"/><path d="M79.73 18.415c-.279.255-.584.48-.91.668.044.009.09.009.135 0a2.51 2.51 0 0 0 1.225-.709c-.151 0-.302.013-.45.04Z" fill="#786639"/><path d="M64.44 15.82a.388.388 0 0 0-.367.23.39.39 0 0 1 .165.313.372.372 0 0 1-.04.17.392.392 0 0 0 .621-.38.397.397 0 0 0-.39-.332h.011Z" fill="#8C734B"/><path d="M66.761 17.344a1.63 1.63 0 0 1-1.548 1.107c-1.467 0-1.863-1.505-1.863-1.505.025.474.235.92.585 1.238.35.319.81.485 1.282.463a1.862 1.862 0 0 0 1.735-1.085 2.48 2.48 0 0 0-.19-.218Z" fill="#C66C6D"/><path d="M75.433 15.038a2.6 2.6 0 0 1-1.35 1.107 4.239 4.239 0 0 1-4.629-.306 4.448 4.448 0 0 1-1.02.088c.15.388.32.766.514 1.133-.37-.34-.692-.73-.957-1.158a9.594 9.594 0 0 1-1.13-.189c.843.709 1.166 1.846 2.047 2.351a2.831 2.831 0 0 1-.477-.1 2.38 2.38 0 0 1-.536.912c.04-.033.081-.066.118-.103a3.706 3.706 0 0 1-1.488 1.398 3.678 3.678 0 0 1-1.997.395c-.48.25-.992.428-1.523.528-.264.369-.887.952-2.156.985 0 0 1.771.864 3.363.177 0 0 2.55-.048 3.573-2.03 0 0 2.242-.368 2.821-2.062 0 0 .521 1.402-2.069 2.764 0 0 1.856-.022 2.59-1.362 0 0 1.49-.273 1.449-1.694 0 0 .833 1.207-.58 2.646 0 0 2.293-.664 1.868-2.793 2.376-.941 1.57-2.687 1.57-2.687ZM73.757 34.364c1.23.233 2.372.801 3.302 1.643a3.79 3.79 0 0 0-1.834-2.252s2.135-.074 3.448 2.716c0 0 .205-2.56-3.078-3.734-.917 1.302-1.838 1.627-1.838 1.627ZM82.432 35.756s-1.878-3.536-5.836-4.82c-.123.31-.264.614-.422.908.837.236 3.995 1.266 6.258 3.912Z" fill="#B2B4B6"/><path d="M66.582 27.002a12.472 12.472 0 0 1-1.79-1.27c-.394-.34-.762-.71-1.1-1.106h.029a1.303 1.303 0 0 1-.26-.639 5.773 5.773 0 0 1-4.865.152 10.71 10.71 0 0 0 4.211-.986c-2.31 0-5.01-1.58-6.522-2.236a6.11 6.11 0 0 0 2.373-.122c-.89.092-3.558-.864-6.287.033 2.311-.295 4.637 1.332 6.508 2.155a6.205 6.205 0 0 0-2.508.554 6.238 6.238 0 0 0-2.074 1.524 6.566 6.566 0 0 0-6.522 1.225 8.11 8.11 0 0 1 5.81-.24s-2.2.3-3.734 3.64a9.989 9.989 0 0 1 6.552-2.806 11.412 11.412 0 0 0-6.394 4.857s3.529-4.355 10.352-4.923c0 0-7.418 2.506-9.846 6.565 0 0 5.664-5.133 11.118-5.698 0 0-.858 3.222-4.922 3.1 0 0-3.47 1.166-6.236 4.982 0 0 1.75.779 2.49 3.55 0 0-.565-5.31 3.5-7.75 0 0-.844 2.09 1.067 4.702.734-3.532 2.55-5 2.55-5 2.164-.897 2.608-2.506 2.608-2.506 2.175-.192 3.46-.893 4.204-1.546l-.312-.21Z" fill="#B2B4B6"/><path d="M70.43 33.04c2.81-.86 3.342-2.432 3.342-2.432.036 1.896-1.387 3.827-1.387 3.827a9.833 9.833 0 0 0 3.067-4.278l-1.266-.343a67.313 67.313 0 0 1-3.503-1.03 26.07 26.07 0 0 1-2.454-.926c-.338.576-1.405 1.676-4.718 1.964 0 0-3.517 3.502-3.554 7.9a9.013 9.013 0 0 1 2.81-4.797 12.037 12.037 0 0 0-.367 6.008s-.106-1.18 1.387-3.004c-.393-2.583 1.313-3.79 1.313-3.79-1.35 2.753.286 5.329.286 5.329-.213-4.06 2.311-5.654 2.311-5.654-1.068 3.322 2.238 4.185 2.16 7.447a5.494 5.494 0 0 1 3.64 2.015c-.342-4.66-4.04-4.266-3.067-8.236Z" fill="#B2B4B6"/><path d="M72.128 23.865c-.47-.051-.95-.092-1.438-.125a40.522 40.522 0 0 1 5.503 2.878c-2.088-1.066-4.578-1.767-6.706-2.933-.524 0-1.06-.019-1.607 0 1.879 1.668 4.42 2.435 7.102 3.236 1.495.42 2.965.925 4.402 1.513-1.526-1.602-4.703-3.528-7.256-4.569Z" fill="#A32035"/><path d="M75.378 24.692c.594.376 1.156.8 1.68 1.27a30.43 30.43 0 0 0-2.413-1.4l-.573-.088c2.63 1.34 5.385 3.248 6.21 4.687-4.034-2.074-9.005-2.38-12.262-5.008l-.404.03c1.207 1.04 2.517 1.845 5.54 2.775-2.202-.469-4.12-1.185-5.87-2.75l-.466.052c4.923 3.868 9.17 3.189 15.157 6.274-1.261-2.428-3.547-4.388-6.236-5.775l-.363-.067Z" fill="#A32035"/><path d="M77.942 25.696c.574.055 1.142.156 1.699.303a9.728 9.728 0 0 0-1.713-1.167c-.572-.107-1.273-.236-2.032-.369.707.367 1.391.778 2.046 1.233Z" fill="#786639"/><path d="M74.465 41.107c.61.265 1.16.652 1.617 1.138a4.956 4.956 0 0 1 1.042 1.685h.466a5.367 5.367 0 0 0-1.114-2.27 5.325 5.325 0 0 0-2.026-1.502c.06.313.066.634.015.949Z" fill="#A32035"/><path d="M73.922 38.298s4.303.856 5.01 5.078a8.637 8.637 0 0 1 2.935.978l1.563.17a14.677 14.677 0 0 0-4.871-5.536c1.775 1.93 1.834 3.576 1.834 3.576-2.832-5.019-7.395-5.76-7.395-5.76.427.412.745.926.924 1.494ZM44.144 44.779l.44-.056.322-.037a25.359 25.359 0 0 1 .367-6.373 20.743 20.743 0 0 0-1.13 6.465ZM45.853 44.58c.323-.038.65-.078.976-.112-.532-3.587 1.03-5.236 1.03-5.236s-.432-1.406.404-2.325c0 0-.367-2.248 1.185-3.654 0 0-2.905 1.026-2.568 5.536-.01.011-1.511 2.2-1.027 5.79ZM48.872 44.258a5.564 5.564 0 0 1-.418-2.129 6.365 6.365 0 0 0 1.17 2.06h.095a12.035 12.035 0 0 1-1.184-3.484 8.366 8.366 0 0 0-.598 3.657l.935-.104ZM50.581 44.096l.763-.067.129.118v-.136l.638-.044c.202-4.632-3.092-6.547-3.092-6.547s2.281 2.233 1.562 6.676ZM65.236 43.472h.708c.345-.39.704-.738 1.064-1.107a9.47 9.47 0 0 0-.154-6.403c-.58.83-.734 2.303-.734 2.303.8 3.082-1.16 4.635-1.16 4.635-.073.188-.135.37-.19.546l.466.026Z" fill="#B2B4B6"/><path d="m2.843 60.997.792-.332v7.93l-.792.37v3.288c2.69-1.23 5.423-2.38 8.198-3.45l2.098-2.986v-3.62l-.872-.513.873-1.244v-4.557l-2.091-1.24c-2.769.966-5.504 2.01-8.206 3.129v3.225Zm4.427-1.782 1.809-.69.429.25v1.51l-.43.605-1.808.698v-2.373Zm0 5.535 1.809-.712.429.251v1.44l-.43.594-1.808.738v-2.31ZM30.916 52.126v-2.583a6.682 6.682 0 0 1-1.127-.218c-1.371.303-2.736.616-4.093.952v3.085l.792-.214v7.532l-.792.218v3.107c1.729-.465 3.469-.902 5.22-1.313v-3.078l-.793.17v-7.48l.793-.178ZM39.826 47.435c-.733.115-1.467.237-2.223.37a3.82 3.82 0 0 1-1.078.34c.04-.056.073-.115.11-.17-1.67.29-3.328.606-4.974.948v.398l.33.233h-.33v2.417l.792-.188v7.484l-.792.17v3.077a151.964 151.964 0 0 1 8.198-1.62l2.098-2.528v-9.178l-2.13-1.753Zm-1.504 10.23-.425.502-1.813.37v-7.448l1.813-.321.425.369v6.528ZM42.709 49.082v9.166l2.102 1.89c1.93-.246 3.869-.469 5.818-.668l2.124-2.377V51.19l-4.637.435v2.953l1.001-.107v1.69l-.41.468-1.937.248-.43-.37v-6.531l.43-.476 1.936-.207.411.37v.331l3.636-.32v-1.669l-2.11-1.875c-1.956.17-3.894.373-5.814.61l-2.12 2.343ZM63.218 49.259V45.52c-3.267.035-6.51.164-9.728.388v2.986l.793-.048v7.317l-.793.06v3.01c3.214-.245 6.456-.384 9.728-.416v-3.735l-2.986.067v.738l-2.314.084v-2.125l.539-.033v.642l2.968-.1v-4.347l-2.968.088v.739l-.54.033v-2.214l2.315-.093v.768l2.986-.07ZM110.473 54.395a6.05 6.05 0 0 0 1.621-1.919 164.055 164.055 0 0 0-6.717-1.878v3.07l.796.222v7.565l-.796-.218v3.119c3.292.927 6.535 1.96 9.729 3.096v-3.978l-2.983-1.004v.786l-2.318-.738v-2.214l.539.173v.668l2.968.945v-4.584l-2.968-.922v.812l-.539-.174v-2.317l2.318.69v.8l2.983.96v-3.937c-.551-.178-1.101-.347-1.655-.52a6.982 6.982 0 0 1-2.978 1.497ZM79.403 46.152v2.992l.465.06-1.496 4.428-1.5-4.68.465.041v-3.011c-1.956-.148-3.924-.26-5.902-.34v2.986l.488.022-1.493 4.469-1.49-4.561h.55v-2.982c-1.525-.04-3.057-.06-4.595-.063h-.925v2.99h1.1l2.36 7.299h-.415v3.015c2.262.032 4.514.114 6.757.247V56.06l-.367-.03.998-2.952.98 3.067-.368-.03v3.012c2.267.15 4.52.352 6.76.605v-3.019l-.41-.051 2.377-7.075 1.064.13v-3.012c-1.793-.209-3.594-.393-5.403-.553ZM97.784 49.543c.271-.181.517-.37.752-.54-1.68-.368-3.371-.685-5.073-.984v4.51l2.982.578v-1.476l.796.16v7.465l-.796-.17v3.078c1.754.376 3.495.783 5.224 1.221V60.29l-.796-.196v-7.528l.796.188v1.495l2.967.738V50.41c-1.54-.386-3.09-.75-4.647-1.089a6.08 6.08 0 0 1-2.205.222ZM115.824 56.798l.793.277v7.727l-.793-.284v3.192a157.67 157.67 0 0 1 5.22 2.004V66.49l-.792-.329v-2.27l1.808.706.429.605v5.107c1.487.61 2.964 1.255 4.432 1.934v-3.288l-.796-.369v-3.044l-.873-1.23.873-.527v-4.288l-2.113-2.897a167.235 167.235 0 0 0-8.184-2.952l-.004 3.151Zm4.428 1.55 1.808.683.429.601v1.55l-.429.258-1.808-.712v-2.38Z" fill="#fff"/><path d="m6.28 67.63.451-.185v-3.049l2.388-.94-.447-.263-2.392.945v3.491ZM6.28 58.584v3.54l.451-.178v-3.103l2.388-.912-.443-.262-2.396.915ZM3.72 59.595l-.338.14v.45l.338-.14v-.45ZM12.149 55.923v4.085l-1.082 1.562.44.262 1.097-1.561v-4.078l-.455-.27ZM12.15 65.385l-1.904 2.71c-2.3.892-4.604 1.844-6.864 2.86v.46c2.407-1.08 4.86-2.11 7.315-3.059l1.907-2.712v-3.137l-.455-.266v3.144ZM23.162 56.193l-1.079 1.425.455.324 1.093-1.428V53.03l-.47-.332v3.495ZM19.732 59.352l-2.443.745v3.377l.47-.152v-2.904l2.435-.742-.462-.324ZM23.161 58.403v3.274l.47-.13v-2.811l-.47-.333ZM18.084 65.238c-1.229.398-2.457.82-3.668 1.247v.487c1.372-.49 2.762-.963 4.145-1.413v-2.015l-.47.148-.007 1.546ZM23.954 61.91v1.564c-.954.266-1.919.55-2.88.837v.462c1.1-.34 2.241-.668 3.35-.978V61.79l-.47.118ZM14.732 55.48l-.323.111v.484l.322-.111v-.483ZM29.914 61.895c-1.229.287-2.457.597-3.668.918v.48c1.368-.369 2.759-.712 4.142-1.037v-1.982l-.463.096-.01 1.525ZM26.566 52.074l-.33.089v.487l.33-.089v-.487ZM29.914 49.842v1.476l-.792.177v8.584l.462-.096v-8.119l.793-.18V49.73l-.463.11ZM35.086 50.274v8.54l.463-.09v-8.089l2.472-.439-.433-.369-2.502.447Z" fill="#8C734B"/><path d="M40.956 49.081v8.747l-1.834 2.214a149.3 149.3 0 0 0-6.915 1.35v.458a153.11 153.11 0 0 1 7.377-1.447l1.834-2.214v-8.738l-.462-.37ZM32.53 50.742l-.334.078v.472l.334-.078v-.472ZM51.825 47.923v.922l-2.579.23.385.36 2.583-.228v-.93l-.39-.354ZM48.501 48.38l-2.384.259-.704.782v6.993l.388.329v-6.957L46.51 49l2.381-.254-.389-.366ZM48.655 53.982l.613-.066v-.406l-.613.066v.406ZM51.825 51.809v4.72l-1.834 2.066c-1.761.17-3.64.395-5.389.624l.396.37c1.78-.233 3.588-.44 5.382-.614l1.834-2.066v-5.137l-.39.037ZM60.452 53.414l-1.456.048v.424l1.89-.066v-3.255l-.434.015v2.834ZM56.946 56.115l.433-.018v-2.772l1.184-.073v-.432l-1.617.1v3.195ZM56.946 47.724v3.32l.433-.025v-2.89l2.96-.118v-.424l-3.393.136ZM54.389 47.86l-.36.022v.436l.36-.023v-.435ZM62.246 46.078v2.243l-1.467.034v.417l1.907-.045V46.07l-.44.008ZM62.246 57.876c-2.744.037-5.502.155-8.217.343v.432c2.854-.203 5.76-.329 8.65-.37v-2.645h-.433v2.24ZM110.472 54.396c.096-.074.187-.155.279-.237l-1.933-.572v3.436l.447.144v-2.986l2.935.875v-.461l-1.196-.37a3.33 3.33 0 0 1-.532.17ZM112.325 60.758l-1.442-.462v.454l1.889.602v-3.447l-.447-.14v2.992ZM108.818 62.33l.447.144v-2.905l1.171.373v-.454l-1.618-.513v3.355ZM114.119 53.672v2.347l-1.468-.468V56l1.908.613v-2.801l-.44-.14ZM106.261 52.879l-.344-.096v.472l.344.096v-.472ZM114.119 66.094c-2.7-.948-5.451-1.823-8.202-2.613v.465c2.901.823 5.803 1.746 8.649 2.742v-2.815l-.447-.148v2.37ZM71.974 47.668v.443l.08.004.147-.436-.227-.011ZM73.959 50.916l-1.75 5.137.609.036 1.442-4.236-.301-.938ZM76.802 46.498l-.462-.03v1.477l-.892-.07 2.348 7.273.26-.738-1.944-6.067.69.06v-1.905ZM79.942 48.262v.406l.055.008.132-.388-.187-.026ZM64.997 47.51l-.495-.004v.461l.646.008-.15-.465ZM68.963 46.103H68.5v1.477l-.964-.034 2.318 7.071.253-.738-1.922-5.904.763.022.015-1.894ZM80.782 58.676a154.12 154.12 0 0 0-5.22-.472v.428c1.89.133 3.797.303 5.682.506V57.2l-.462-.059v1.535ZM83.812 47.151v1.51l-.895-.107-2.73 8.118.595.078L83.379 49l.895.11v-1.922l-.462-.037ZM72.77 58.03a153.866 153.866 0 0 0-5.223-.195v.472c1.889.034 3.797.104 5.686.207V56.58l-.463-.036v1.487ZM89.02 51.477l-.274-.742-1.567 3.672.554.088 1.288-3.018ZM92.131 48.343l-.388-.062v1.517l-1.424-.252 3.394 9.1.59.141-3.254-8.687 1.082.177v-1.934ZM86.178 48.934v.428l.344.048.173-.406-.517-.07ZM86.647 59.414a133.87 133.87 0 0 0-3.595-.483v.428c1.34.159 2.674.34 3.984.535v-1.956l-.389-.063v1.54ZM90.789 56.282l-4.069-.639-.62 1.72.529.092.48-1.332 3.808.594-.128-.435ZM94.772 59.278v1.565c-1.2-.244-2.41-.477-3.613-.69v.405c1.332.237 2.674.491 4.002.764V59.36l-.389-.081ZM101.746 51.757l-1.871-.443v8.62l.459.115v-8.17l1.412.335v-.457ZM97.318 50.76l-1.87-.372v1.498l-1.446-.28v.476l1.907.369v-1.495l1.409.28v-.476ZM100.667 62.109a164.45 164.45 0 0 0-3.668-.864v.461c1.383.303 2.773.628 4.145.967v-1.978l-.462-.11-.015 1.524ZM103.635 50.72v3.015l-1.431-.369v.45l1.893.473v-3.47l-.462-.099ZM125.123 62.81l-1.111.667.469.664 1.104-.664v-3.8l-.462-.636v3.768ZM125.124 65.064v3.218l.462.207v-2.775l-.462-.65ZM119.254 56.898v3.531l.458.18v-3.044l2.693 1-.462-.653-2.689-1.014ZM120.047 68.246a205.767 205.767 0 0 0-3.669-1.41v.494c1.383.506 2.774 1.037 4.146 1.584V66.85l-.463-.192-.014 1.587ZM116.694 56.023l-.33-.118v.509l.33.114v-.505ZM125.915 69.102v1.634c-.961-.431-1.929-.852-2.89-1.258v.469c1.1.468 2.234.955 3.353 1.476v-2.1l-.463-.221ZM119.254 62.437v3.417l.458.192v-2.945l2.715 1.06-.484-.68-2.689-1.044Z" fill="#8C734B"/><path d="M28.697 72.512c-1.563.413-3.12.852-4.67 1.317l4.67 1.986v-3.303ZM99.688 75.15l-2.686-2.701h-6.654l-1.75 1.764v-1.764H76.894v4.941h.8v4.602h-4.747v.804h-.462V77.39h.796V72.45h-7.175v1.727l-1.702-1.713h-6.65l-2.686 2.702v7.646h-.15l-2.146-5.406h.209v-4.956h-8.99v4.941h.113l-2.146 5.406h-.14v-.531h-1.8v-4.347h1.8v-5.47H30.113v4.942h.8v5.406h-.8v4.957h17.75V84.14h1.134v3.627h7.029V86.03l1.727 1.738h6.65l1.703-1.716v1.716h22.494v-1.782l1.75 1.764h6.653l2.686-2.705v-4.68l-1.204-1.21h1.204V75.15Zm-38.183 3.233h-.858v-.993h.858v.993Zm26.166 2.727v1.155h-.866v-4.347h.865v1.981l1.204 1.211H87.67ZM105.539 73.763a134.79 134.79 0 0 0-6.79-1.846l2.395 2.31v1.418l4.395-1.882Z" fill="#A32035"/><path d="M37.856 83.77v-.53h2.997v3.546h-9.776V83.77h.8V76.42h-.8v-2.982h9.776v3.528h-2.997v-.528h-2.33v2.166h.544v-.527h2.982v4.06H36.07v-.529h-.543v2.163h2.329ZM52.016 76.42h-.66l2.934 7.347h.8v3.015H49.96v-3.011h.43l-.191-.613h-3.525l-.206.613h.43v3.015h-5.081V83.77h.796l2.934-7.347h-.572v-2.986h7.04v2.982Zm-2.74 4.185-.855-2.119-.844 2.119h1.698ZM66.124 84.65l-2.12 2.132h-5.852l-2.12-2.133v-9.097l2.12-2.133h5.851l2.12 2.133v2.986h-3.65V76.85l-.414-.431h-1.948l-.429.431v6.5l.43.416h1.947l.415-.417v-1.27h-1.005v-2.738h4.655v5.307ZM71.53 83.77h2.392v-.804h2.997v3.82H67.07V83.77h.792V76.42h-.796v-2.982h5.246v3h-.781v7.333ZM84.637 83.77v-.53h2.997v3.546h-9.776V83.77h.8V76.42h-.8v-2.982h9.776v3.528h-2.997v-.528h-2.329v2.166h.543v-.527h2.986v4.06h-2.983v-.529h-.542v2.163h2.325ZM90.748 81.63l-2.12-2.133v-3.945l2.12-2.133H96.6l2.124 2.133v2.632h-3.668V76.85l-.415-.431h-1.944l-.43.431v1.347l.43.436h3.888l2.124 2.133v3.882l-2.124 2.133h-5.836l-2.12-2.133v-2.583h3.668v1.27l.43.416h1.914l.415-.417v-1.284l-.415-.42h-3.892Z" fill="#fff"/><path d="M38.132 81.206h-1.526v.38h1.907V78.61h-.381v2.595ZM34.61 75.497v3.262h.378v-2.882h3.026v-.38H34.61ZM34.61 83.926h.378v-2.868h1.24v-.38H34.61v3.248ZM39.936 73.962v2.063h-1.544v.384h1.922v-2.447h-.378ZM39.936 85.86h-8.32v.38h8.698v-2.462h-.378v2.082ZM32.035 75.497h-.418v.38h.418v-.38ZM50.335 82.616l-.12-.384H45.91l-.576 1.694h.51l.444-1.31h4.046ZM51.48 73.962h-.382v1.535h-1.133l3.349 8.429h.437l-3.2-8.049h.929v-1.915ZM45.493 75.497v.38h.297l.154-.38h-.45ZM45.981 85.86H42.35v.38h4.009v-1.934h-.378v1.553ZM46.41 80.767h.533l1.372-3.447-.265-.664-1.64 4.11ZM54.143 84.306v1.553h-3.646v.38h4.028v-1.933h-.382ZM61.909 75.497h-2.4l-.744.75v6.952l.378.365v-6.938l.745-.749h2.384l-.363-.38ZM62.631 81.158h-.627v.38h.627v-.38ZM65.206 84.044l-1.804 1.816h-5.407l.378.38h5.406l1.805-1.816v-4.528h-.378v4.148ZM65.207 75.397v2.215h-2.198v.384h2.575v-2.218l-.377-.38ZM75.991 83.505v2.354H67.61v.38h8.76v-2.734h-.378ZM71.398 75.497h-.795v8.429h.377v-8.049h.796v-1.915H71.4v1.535ZM68.028 75.497h-.419v.38h.419v-.38ZM81.39 83.926h.379v-2.868h1.24v-.38H81.39v3.248ZM81.39 75.497v3.262h.379v-2.882h3.026v-.38H81.39ZM84.916 81.206h-1.53v.38h1.908V78.61h-.378v2.595ZM86.717 73.962v2.063h-1.544v.384h1.922v-2.447h-.378ZM78.816 75.497h-.419v.38h.419v-.38ZM86.717 85.86h-8.32v.38h8.698v-2.462h-.378v2.082ZM91.743 82.623h-.378v.576l.378.365v-.941ZM97.806 75.397v1.864H95.61v.38h2.575v-1.863l-.378-.38ZM94.871 81.091l-.366-.383h-3.91l.377.383h3.9ZM92.487 75.877h2.385l-.367-.38h-2.396l-.744.75v1.796l.378.38v-1.797l.744-.749ZM97.806 80.608v3.436l-1.808 1.815h-5.404l.378.38h5.407l1.805-1.815v-3.432l-.378-.384ZM22.784 74.205l-.76-2.528h-8.37l5.2 3.041-5.2 3.037h15.043v-1.037l-5.91-2.483-.003-.03ZM116.07 71.677h-8.532l-.745 2.484-.026-.008.011.011-5.634 2.37v1.221h14.926l-5.201-3.037 5.201-3.04Z" fill="#8C734B"/><path d="M23.477 72.943a142.967 142.967 0 0 1 82.659-.044l1.71-5.805a149.082 149.082 0 0 0-86.138.048l1.769 5.801Z" fill="#8C734B"/><path d="m33.014 66.946-.092-.406-.22-.059-.928.21-.183.152.367 1.55.227.055.928-.21.176-.148-.088-.369 1.746-.395.154.694-.898.738-2.8.62-1.125-.28-.484-2.17.898-.738 2.795-.635 1.127.28.157.717-1.757.394ZM41.524 64.035l2.836-.42 1.1.368.323 2.215-.95.667-2.835.421-1.101-.369-.323-2.214.95-.668Zm2 .447-.943.136-.195.137.231 1.572.224.07.943-.14.187-.13-.231-1.572-.217-.074ZM53.798 65.146l1.167-.085v-.196l1.467-.107.059.93-4.802.35-.055-.737.389-.03-.129-1.794-.388.03-.055-.738 2.567-.184.056.737-.39.03.114 1.794ZM64.363 64.729h1.17v-.196H67v.934h-4.816v-.738h.389V62.93h-.393v-.738h2.568v.738h-.389l.004 1.798ZM76.072 65.156v-.129l1.467.104-.062.867-4.769-.347.055-.738.389.03.128-1.794-.389-.03.052-.738 4.769.347-.06.86-1.466-.103v-.13l-1.134-.08-.04.53.264.02v-.13l1.467.103-.073.993-1.468-.107v-.129h-.264l-.036.528 1.17.073ZM88.236 66.813l-1.1.37-2.833-.418-.953-.668.322-2.214 1.1-.369 2.836.42.95.669-.102.72-1.768-.259.058-.41-.187-.132-.939-.14-.224.073-.23 1.572.194.133.942.14.213-.073.044-.307-.484-.07.096-.66 2.255.332-.19 1.291ZM97.34 68.4l.026-.129 1.434.325-.19.845-4.667-1.052.158-.72.367.085.392-1.753-.366-.084.157-.716 4.67 1.048-.187.845-1.434-.325.029-.125-1.1-.251-.118.52.26.059.03-.125 1.423.32-.216.971-1.423-.32.025-.13-.257-.055-.113.516 1.1.251Z" fill="#fff"/><path d="M56.575 37.988a34.357 34.357 0 0 0-1.72 5.798c.693-.04 1.393-.074 2.09-.107.037-2.303-.69-2.823-.69-2.823.081-.3.35-1.325.35-1.325.548 1.308.698 2.75.432 4.144.198 0 .396-.026.598-.033a7.115 7.115 0 0 0-1.06-5.654ZM53.06 43.915h.29l.489-.033a22.038 22.038 0 0 1 2.2-6.809s-4.622 1.676-2.978 6.842Zm0-2.214s.082-2.192 1.886-3.166l-.216.594a5.664 5.664 0 0 0-1.65 2.539l-.02.033ZM64.194 37.103c-1.984 2.192-2.234 5.244-2.234 5.244a21.578 21.578 0 0 1-.609-5.58 11.348 11.348 0 0 0-.55 4.72c-.69-2.805-2.593-3.277-2.593-3.277 2.043 2.026 1.371 5.089 1.371 5.089.136.078.266.165.39.262.663-.018 1.33-.037 1.995-.048h1.518c2.333-3.06.712-6.41.712-6.41Zm-.855 5.856s.606-2.387.195-4.026l.275-.553a6.174 6.174 0 0 1-.488 4.58h.018Z" fill="#B2B4B6"/><path d="M64.249 16.363a.4.4 0 0 1-.242.371.395.395 0 0 1-.543-.288.401.401 0 0 1 .168-.41.394.394 0 0 1 .5.048.4.4 0 0 1 .117.28Z" fill="#fff"/><path d="M66.967 17.537a1.862 1.862 0 0 1-1.735 1.081 1.78 1.78 0 0 1-1.282-.463 1.802 1.802 0 0 1-.585-1.238s.367 1.505 1.863 1.505a1.63 1.63 0 0 0 1.534-1.077 2.979 2.979 0 0 0-.437-.37 1.014 1.014 0 0 1-.311.709 1.001 1.001 0 0 1-1.422-.034 1.014 1.014 0 0 1-.222-1.032.416.416 0 0 1-.162-.067h-.014a.392.392 0 0 1-.28.212.386.386 0 0 1-.336-.101 3.257 3.257 0 0 0-.536.177v.085a2.126 2.126 0 0 0 .682 1.471 2.098 2.098 0 0 0 1.519.551 2.19 2.19 0 0 0 1.959-1.107c-.074-.125-.158-.214-.235-.302Z" fill="#A32035"/><path d="M64.194 16.19ZM64.249 16.363Z" fill="#690013"/><path d="M63.585 16.655a.396.396 0 0 1 .268-.687.39.39 0 0 1 .23.081.395.395 0 0 1 .368-.254.391.391 0 0 1 .366.254 1.002 1.002 0 0 1 1.246.141c.19.19.295.447.295.716v.048c.328.229.613.514.844.841.152-.27.233-.575.234-.886-.491-.716-1.074-1.395-2.373-1.395a3.606 3.606 0 0 0-1.713.395 1.897 1.897 0 0 0-.279.912c.167-.07.339-.125.514-.166Z" fill="#653334"/><path d="M118.854 73.139v-.646h.25v-.13h-.649v.13h.249v.646h.15ZM119.808 72.364l-.132.37a3.25 3.25 0 0 0-.055.191c0-.081-.033-.137-.051-.196l-.133-.369h-.22l-.058.775h.146l.03-.454v-.217c0 .066.04.158.055.221l.136.44h.161l.136-.429c.025-.074.047-.166.066-.232v.217l.029.454h.15l-.058-.775-.202.004Z" fill="#231F20"/></g></g><defs><clipPath id="a"><path fill="#fff" d="M0 0h128.824v90H0z"/></clipPath><clipPath id="b"><path fill="#fff" d="M0 0h129.76v90H0z"/></clipPath></defs></svg>